<svg xmlns="http://www.w3.org/2000/svg" width="90" height="90" viewBox="0 0 90 90">
  <g id="Group_1681" data-name="Group 1681" transform="translate(-544 -466)">
    <circle id="Ellipse_46" data-name="Ellipse 46" cx="45" cy="45" r="45" transform="translate(544 466)" fill="#f2f2f2"/>
    <g id="Group_609" data-name="Group 609" transform="translate(552 474)">
      <path id="Path_1323" data-name="Path 1323" d="M344.16,141.347l-4.068-8.242-4.068,8.242-9.095,1.322,6.581,6.415-1.554,9.059,8.135-4.277,8.135,4.277-1.554-9.059,6.581-6.415Zm-1.691,8.869-2.376-1.249-2.376,1.249.454-2.646-1.922-1.874,2.657-.386,1.188-2.407,1.188,2.407,2.656.386-1.922,1.874Zm0,0" transform="translate(-279.678 -113.868)" fill="#7e57c2"/>
      <path id="Path_1324" data-name="Path 1324" d="M18.67,141.347,14.6,133.105l-4.066,8.238-9.349,1.326,6.829,6.438-1.55,9.035,8.135-4.277,8.135,4.277-1.554-9.059,6.581-6.415Zm-1.691,8.869L14.6,148.967l-2.376,1.249.458-2.669L10.72,145.7l2.692-.382L14.6,142.9l1.188,2.407,2.656.386-1.922,1.874Zm0,0" transform="translate(-1.016 -113.868)" fill="#7e57c2"/>
      <path id="Path_1325" data-name="Path 1325" d="M219.672,362H211v4.336h4.336v4.336H211v4.336h13.008v-4.336h-4.336Zm0,0" transform="translate(-180.504 -309.68)" fill="#7e57c2"/>
      <path id="Path_1326" data-name="Path 1326" d="M74,332.352V315.008H52.176V302H21.824v8.672H0v21.68Zm-4.336-13.008v8.672H52.176v-8.672Zm-43.5-13.008H47.84v21.68H26.16ZM4.336,328.016V315.008H21.824v13.008Zm0,0" transform="translate(0 -258.352)" fill="#7e57c2"/>
      <path id="Path_1327" data-name="Path 1327" d="M146.589,25.313c.917-1.09,1.854-2.2,2.632-3.346a10.593,10.593,0,0,0,7.661-3.353,11.216,11.216,0,0,0,3.141-7.775v-6.5h-8.672V0h-21.68V4.336H121v6.5a11.216,11.216,0,0,0,3.141,7.775,10.593,10.593,0,0,0,7.661,3.353c.778,1.141,1.715,2.256,2.632,3.346,1.922,2.285,3.91,4.647,3.91,6.619v3.045h-4.336v4.336h13.008V34.977H142.68V31.932C142.68,29.96,144.668,27.6,146.589,25.313Zm9.1-16.641V10.84a6.879,6.879,0,0,1-4.487,6.442,10.9,10.9,0,0,0,.151-1.817V8.672ZM125.336,10.84V8.672h4.336v6.793a10.9,10.9,0,0,0,.151,1.817A6.879,6.879,0,0,1,125.336,10.84Zm12.416,11.682a23.829,23.829,0,0,1-3.077-4.185,6.433,6.433,0,0,1-.667-2.873V4.336h13.008V15.465a6.433,6.433,0,0,1-.667,2.873,23.829,23.829,0,0,1-3.077,4.185,44.443,44.443,0,0,0-2.76,3.515A44.443,44.443,0,0,0,137.752,22.522Zm0,0" transform="translate(-103.512)" fill="#7e57c2"/>
    </g>
  </g>
</svg>
