<svg id="Group_1135" data-name="Group 1135" xmlns="http://www.w3.org/2000/svg" width="78" height="78" viewBox="0 0 78 78">
  <path id="Path_1613" data-name="Path 1613" d="M272,448h2.516v2.516H272Zm0,0" transform="translate(-229.226 -377.548)"/>
  <path id="Path_1614" data-name="Path 1614" d="M3.774,17.613H9.646l6.709,5.032V17.613h5.032a3.779,3.779,0,0,0,3.774-3.774V3.774A3.779,3.779,0,0,0,21.387,0H3.774A3.779,3.779,0,0,0,0,3.774V13.839A3.779,3.779,0,0,0,3.774,17.613ZM2.516,3.774A1.259,1.259,0,0,1,3.774,2.516H21.387a1.259,1.259,0,0,1,1.258,1.258V13.839A1.259,1.259,0,0,1,21.387,15.1H13.839v2.516L10.483,15.1H3.774a1.259,1.259,0,0,1-1.258-1.258Zm0,0"/>
  <path id="Path_1615" data-name="Path 1615" d="M32,64H47.1v2.516H32Zm0,0" transform="translate(-26.968 -53.935)"/>
  <path id="Path_1616" data-name="Path 1616" d="M357.387,0H339.774A3.779,3.779,0,0,0,336,3.774V13.839a3.779,3.779,0,0,0,3.774,3.774h5.032v5.032l6.709-5.032h5.871a3.779,3.779,0,0,0,3.774-3.774V3.774A3.779,3.779,0,0,0,357.387,0Zm1.258,13.839a1.259,1.259,0,0,1-1.258,1.258h-6.709l-3.355,2.516V15.1h-7.548a1.259,1.259,0,0,1-1.258-1.258V3.774a1.259,1.259,0,0,1,1.258-1.258h17.613a1.259,1.259,0,0,1,1.258,1.258Zm0,0" transform="translate(-283.161)"/>
  <path id="Path_1617" data-name="Path 1617" d="M368,64h15.1v2.516H368Zm0,0" transform="translate(-310.129 -53.935)"/>
  <path id="Path_1618" data-name="Path 1618" d="M32,32H47.1v2.516H32Zm0,0" transform="translate(-26.968 -26.968)"/>
  <path id="Path_1619" data-name="Path 1619" d="M368,32h15.1v2.516H368Zm0,0" transform="translate(-310.129 -26.968)"/>
  <path id="Path_1620" data-name="Path 1620" d="M73.234,173.729l-5.3-1.326v-.6a8.835,8.835,0,0,0,3.775-7.22v-2.2a9.037,9.037,0,0,0-8.535-9.119c-.076,0-.148,0-.319,0-.074,0-.144,0-.222,0a9.039,9.039,0,0,0-8.536,9.12v2.2a8.835,8.835,0,0,0,3.775,7.22v.6l-3.775.945V167.1a15.1,15.1,0,0,0-30.194,0v6.264l-3.775-.956v-.6a8.841,8.841,0,0,0,3.775-7.222v-2.2a9.037,9.037,0,0,0-8.535-9.119c-.076,0-.148,0-.319,0-.074,0-.144,0-.222,0a9.039,9.039,0,0,0-8.536,9.12v2.2a8.835,8.835,0,0,0,3.775,7.22v.6l-5.3,1.326A6.283,6.283,0,0,0,0,179.832v6.136H30.194v-3.946a10.127,10.127,0,0,0,2.516,2.983v2.533l-9.989,2.881a8.849,8.849,0,0,0-6.366,8.462V206.1h45.29v-7.216a8.85,8.85,0,0,0-6.366-8.462l-9.989-2.881v-2.533a10.121,10.121,0,0,0,2.526-3l-.01,3.962H78v-6.136A6.283,6.283,0,0,0,73.234,173.729ZM2.516,183.452v-3.619a3.771,3.771,0,0,1,2.858-3.662l7.2-1.8,0-3.981-.629-.364a6.315,6.315,0,0,1-3.149-5.444v-2.2a6.508,6.508,0,0,1,6.14-6.6h.343a6.5,6.5,0,0,1,6.1,6.6v2.2a6.315,6.315,0,0,1-3.149,5.444l-.629.364,0,3.981,6.293,1.57a5.025,5.025,0,0,0,3.762,4.815l.009,2.7Zm26.419-5.032a2.516,2.516,0,1,1,0-5.032v3.774a10.124,10.124,0,0,0,.087,1.258ZM18.871,198.881a6.321,6.321,0,0,1,4.546-6.044l9.646-2.783.026.106a6.07,6.07,0,0,0,4.651,4.468v8.953H26.418v-7.548H23.9v7.548H18.87v-4.7Zm23.9-10.549-.3,1.219a3.577,3.577,0,0,1-6.939,0l-.3-1.219v-1.847a9.984,9.984,0,0,0,7.548,0Zm11.808,4.505a6.32,6.32,0,0,1,4.546,6.044v4.7H54.1v-7.548H51.581v7.548H40.258v-8.953a6.069,6.069,0,0,0,4.651-4.468l.026-.106Zm-8.034-15.675a7.548,7.548,0,0,1-15.1,0v-5.032a1.259,1.259,0,0,1,1.258-1.258H45.29a1.259,1.259,0,0,1,1.258,1.258Zm-1.258-8.806H32.71a3.769,3.769,0,0,0-3.543,2.516h-.232a4.977,4.977,0,0,0-2.516.7V167.1a12.581,12.581,0,0,1,25.161,0v4.474a4.977,4.977,0,0,0-2.516-.7h-.232A3.769,3.769,0,0,0,45.29,168.355Zm3.688,10.065a10.124,10.124,0,0,0,.087-1.258v-3.774a2.516,2.516,0,1,1,0,5.032Zm26.506,5.032H50.323v-2.695a5.024,5.024,0,0,0,3.772-4.816l6.293-1.573,0-3.981-.629-.364a6.311,6.311,0,0,1-3.149-5.443v-2.2a6.508,6.508,0,0,1,6.14-6.6H63.1a6.5,6.5,0,0,1,6.1,6.6v2.2a6.315,6.315,0,0,1-3.149,5.444l-.629.364,0,3.981,7.2,1.8a3.771,3.771,0,0,1,2.858,3.662Zm0,0" transform="translate(0 -128.097)"/>
</svg>
