<svg id="Group_1430" data-name="Group 1430" xmlns="http://www.w3.org/2000/svg" width="159.67" height="159.67" viewBox="0 0 159.67 159.67">
  <path id="Path_1693" data-name="Path 1693" d="M378.711,85.673,365.66,104.724c-.527.77.7-.334-18.456,15.44V155a4.674,4.674,0,0,1-4.678,4.668H324.982l-3.119-5.094V3.7L324.982,0h0A10.514,10.514,0,0,1,335.51,10.5v9.5a10.525,10.525,0,0,1,21.05,0V68.49a14.044,14.044,0,0,1,22.151,17.183Z" transform="translate(-221.488 0)" fill="#ffa81c"/>
  <path id="Path_1694" data-name="Path 1694" d="M215.745,0V159.67H177.157A4.672,4.672,0,0,1,172.479,155V113.285a36.227,36.227,0,0,1-9.356-24.4v-59.6a10.525,10.525,0,0,1,21.05,0V15.225a10.525,10.525,0,0,1,21.05,0V10.5A10.514,10.514,0,0,1,215.745,0Z" transform="translate(-112.252 0)" fill="#ffc473"/>
  <g id="Group_1429" data-name="Group 1429" transform="translate(0.647 0.648)">
    <path id="Path_1695" data-name="Path 1695" d="M53.985,47.371a4.678,4.678,0,0,0-6.615,6.615l6.549,6.549a4.678,4.678,0,1,0,6.615-6.615Z" transform="translate(-32.302 -32.303)" fill="#ffda2d"/>
    <path id="Path_1696" data-name="Path 1696" d="M133.669,14.483l-2.4-8.938a4.678,4.678,0,0,0-9.037,2.422l2.4,8.938a4.678,4.678,0,0,0,9.037-2.422Z" transform="translate(-84.654 -2.077)" fill="#ffda2d"/>
    <path id="Path_1697" data-name="Path 1697" d="M16.9,124.632l-8.938-2.4a4.678,4.678,0,1,0-2.422,9.037l8.938,2.4a4.678,4.678,0,1,0,2.422-9.037Z" transform="translate(-2.076 -84.654)" fill="#ffda2d"/>
  </g>
  <path id="Path_1698" data-name="Path 1698" d="M225.871,166.346v50.979a36.356,36.356,0,0,1-9.356,24.449v7.494a4.678,4.678,0,0,1-4.678,4.678H173.246l-3.119-4.446V141.366L173.246,137a10.525,10.525,0,0,1,10.525,10.525v4.731a10.525,10.525,0,0,1,21.05,0v14.09a10.525,10.525,0,1,1,21.05,0Z" transform="translate(-117.072 -94.276)" fill="#ce6a32"/>
  <path id="Path_1699" data-name="Path 1699" d="M56.174,137V253.946H38.632a4.68,4.68,0,0,1-4.678-4.678v-.6l-17.573-14.5c-.714-.593.321.8-13.934-20.059A14.053,14.053,0,0,1,24.6,196.892V157.046a10.525,10.525,0,0,1,21.05,0v-9.521A10.525,10.525,0,0,1,56.174,137Z" transform="translate(0 -94.276)" fill="#d98249"/>
</svg>
