<svg xmlns="http://www.w3.org/2000/svg" width="64" height="64" viewBox="0 0 64 64">
  <g id="Group_599" data-name="Group 599" transform="translate(-1256 -251)">
    <circle id="Ellipse_43" data-name="Ellipse 43" cx="32" cy="32" r="32" transform="translate(1256 251)" fill="#f6f8f9" opacity="0.2"/>
    <path id="Path_1320" data-name="Path 1320" d="M37.46,37.141H35.524V32.623a1.938,1.938,0,0,0-1.936-1.936H29.41a16.04,16.04,0,0,1-2.921-9.249V19.469l4.229,2.114a.645.645,0,0,0,.9-.8L29.2,14.153l6.048-4.234a.646.646,0,0,0-.312-1.172l-6.725-.611L25.14,1.379a.645.645,0,0,0-1.175,0L20.893,8.135l-6.725.611a.646.646,0,0,0-.312,1.172L19.9,14.152l-2.412,6.634a.645.645,0,0,0,.9.8l4.229-2.114v1.968A16.038,16.038,0,0,1,19.7,30.687H15.518a1.938,1.938,0,0,0-1.936,1.936v4.518H11.645a.646.646,0,0,0-.645.645v2.581a.646.646,0,0,0,.645.645H37.46a.646.646,0,0,0,.645-.645V37.786A.646.646,0,0,0,37.46,37.141ZM21.287,14.128a.646.646,0,0,0-.237-.749L16.042,9.873l5.342-.485a.646.646,0,0,0,.529-.376l2.64-5.806,2.64,5.806a.644.644,0,0,0,.529.376l5.342.485-5.008,3.506a.646.646,0,0,0-.237.749l2.028,5.577-5-2.5a.647.647,0,0,0-.578,0l-5,2.5Zm2.62,7.309V18.824l.645-.323.645.323v2.614a17.311,17.311,0,0,0,2.667,9.249H21.24A17.309,17.309,0,0,0,23.907,21.438ZM14.872,32.623a.646.646,0,0,1,.645-.645h18.07a.646.646,0,0,1,.645.645v4.518H30.361V33.914a.646.646,0,0,0-.645-.645H19.39a.646.646,0,0,0-.645.645v3.227H14.872Zm14.2,4.518H20.035V34.559H29.07Zm7.744,2.581H12.291V38.431H36.815Z" transform="translate(1263 262)" fill="#fff"/>
  </g>
</svg>
