<svg xmlns="http://www.w3.org/2000/svg" width="22" height="22" viewBox="0 0 22 22">
  <path id="internet" d="M19.226,18.291a10.97,10.97,0,0,0-.212-14.814h0l0,0A10.969,10.969,0,0,0,11.381.01h0L11.167,0c-.055,0-.111,0-.167,0s-.111,0-.167,0L10.62.009h0A10.969,10.969,0,0,0,2.992,3.471s0,0,0,0h0a10.969,10.969,0,0,0-.213,14.814s0,.007,0,.011.017.014.024.023a10.975,10.975,0,0,0,7.817,3.666h0l.214.006c.056,0,.111,0,.167,0s.111,0,.167,0l.214-.006h0A10.974,10.974,0,0,0,19.2,18.317c0-.006.013-.008.017-.015S19.224,18.295,19.226,18.291ZM.768,11.379H5.321a14.018,14.018,0,0,0,.916,4.634A13.986,13.986,0,0,0,3.16,17.58,10.194,10.194,0,0,1,.768,11.379Zm2.6-7.2a13.952,13.952,0,0,0,3,1.472,14.007,14.007,0,0,0-1.043,4.967H.768A10.2,10.2,0,0,1,3.368,4.181Zm17.864,6.44H16.679a14.007,14.007,0,0,0-1.043-4.967,13.952,13.952,0,0,0,3-1.472A10.2,10.2,0,0,1,21.232,10.621ZM10.621,5.676a13.26,13.26,0,0,1-3.213-.487A13.271,13.271,0,0,1,10.621,1Zm0,.759v4.186H6.08A13.248,13.248,0,0,1,7.091,5.889,14.015,14.015,0,0,0,10.621,6.434Zm.759,0a14,14,0,0,0,3.53-.545,13.248,13.248,0,0,1,1.011,4.732H11.379Zm0-.759V1a13.271,13.271,0,0,1,3.213,4.186A13.26,13.26,0,0,1,11.379,5.676Zm3.948-.717A14.008,14.008,0,0,0,12.336.849a10.212,10.212,0,0,1,5.759,2.776A13.193,13.193,0,0,1,15.328,4.958Zm-8.655,0A13.181,13.181,0,0,1,3.906,3.624,10.211,10.211,0,0,1,9.665.849,14,14,0,0,0,6.672,4.958ZM6.08,11.379h4.541v3.808a13.99,13.99,0,0,0-3.665.585A13.247,13.247,0,0,1,6.08,11.379Zm4.541,4.566V21a13.265,13.265,0,0,1-3.37-4.52A13.226,13.226,0,0,1,10.621,15.945ZM11.379,21V15.945a13.225,13.225,0,0,1,3.37.531A13.262,13.262,0,0,1,11.379,21Zm0-5.81V11.379H15.92a13.242,13.242,0,0,1-.877,4.392A13.969,13.969,0,0,0,11.379,15.187Zm5.3-3.808h4.553a10.192,10.192,0,0,1-2.392,6.2,13.986,13.986,0,0,0-3.077-1.567A14.008,14.008,0,0,0,16.679,11.379Zm-13,6.769a13.219,13.219,0,0,1,2.851-1.434,14,14,0,0,0,3.137,4.437A10.22,10.22,0,0,1,3.676,18.148Zm8.66,3a13.988,13.988,0,0,0,3.137-4.437,13.228,13.228,0,0,1,2.851,1.434A10.22,10.22,0,0,1,12.336,21.151Z"/>
</svg>
