<svg xmlns="http://www.w3.org/2000/svg" width="412.674" height="81.009" viewBox="0 0 412.674 81.009">
  <g id="Group_1678" data-name="Group 1678" transform="translate(-1268.326 -651.991)">
    <text id="_100_Money_Back_Guarantee_" data-name="100% Money Back Guarantee*" transform="translate(1374 728)" fill="#7e57c2" font-size="22" font-family="HelveticaNeue-Bold, Helvetica Neue" font-weight="700"><tspan x="0" y="0">100% </tspan><tspan y="0" font-family="HelveticaNeue, Helvetica Neue" font-weight="400">Money Back Guarantee*</tspan></text>
    <text id="_5000_Companies_have_trusted_us_with_their_recruitment_process." data-name="5000 Companies have trusted us with their
recruitment process." transform="translate(1374 669)" font-size="16" font-family="HelveticaNeue-Bold, Helvetica Neue" font-weight="700"><tspan x="0" y="0">5000</tspan><tspan y="0" xml:space="preserve" font-family="HelveticaNeue, Helvetica Neue" font-weight="400"> Companies have trusted us with their</tspan><tspan font-family="HelveticaNeue, Helvetica Neue" font-weight="400"><tspan x="0" y="21">recruitment process.</tspan></tspan></text>
    <g id="Group_542" data-name="Group 542" transform="translate(4 36)">
      <circle id="Ellipse_35" data-name="Ellipse 35" cx="34.5" cy="34.5" r="34.5" transform="translate(1285 626)" fill="#ededed"/>
      <g id="Group_539" data-name="Group 539" transform="translate(1290.855 615.991)">
        <path id="Path_1253" data-name="Path 1253" d="M45.764,48.582h0A33.927,33.927,0,0,0,67.8,16.806V8.228A8.228,8.228,0,0,1,59.576,0H31.952a8.228,8.228,0,0,1-8.228,8.228v8.577a33.927,33.927,0,0,0,22.04,31.777Z" transform="translate(-23.724)" fill="#9c74e2"/>
        <path id="Path_1254" data-name="Path 1254" d="M256,48.582h0a33.927,33.927,0,0,0,22.04-31.777V8.228A8.228,8.228,0,0,1,269.812,0H256V48.582Z" transform="translate(-233.96)" fill="#7e57c2"/>
        <path id="Path_1255" data-name="Path 1255" d="M153.947,179.61,146.64,172.3l4.026-4.026,3.281,3.281,9.421-9.422,4.026,4.026Z" transform="translate(-134.977 -146.752)" fill="#f1f1f2"/>
        <path id="Path_1256" data-name="Path 1256" d="M256,176.54v-8.051l6.351-6.351,4.026,4.026Z" transform="translate(-233.96 -146.752)" fill="#e6e6e6"/>
      </g>
      <g id="Group_540" data-name="Group 540" transform="translate(1308.87 671.443) rotate(-40)">
        <path id="Path_1257" data-name="Path 1257" d="M36.6.631a2.676,2.676,0,0,0-3.769.317L26.71,7.242h.006a2.737,2.737,0,0,0-2.627-1.97H13.948a10.708,10.708,0,0,0-4.3-.9A10.138,10.138,0,0,0,0,10.322l8.095,8.053.015-.012L9.5,17.019a3.579,3.579,0,0,1,2.486-1H23.92a7.132,7.132,0,0,0,4.974-2.021L36.92,4.4A2.674,2.674,0,0,0,36.6.631Zm0,0" transform="translate(7.338 0.961)" fill="#fed2a4"/>
        <path id="Path_1259" data-name="Path 1259" d="M14.387,10.653l-4.336,4.271L0,4.8,4.259.524a1.791,1.791,0,0,1,2.532,0l7.6,7.6A1.791,1.791,0,0,1,14.387,10.653Zm0,0" transform="translate(0.873 11.016)" fill="#7e57c2"/>
        <path id="Path_1260" data-name="Path 1260" d="M1.528,1.529a.9.9,0,1,0-1.267,0A.9.9,0,0,0,1.528,1.529Zm0,0" transform="translate(19.541 10.555)"/>
        <path id="Path_1262" data-name="Path 1262" d="M10.311,26.57a.9.9,0,0,0,1.263.007l4.34-4.276a2.705,2.705,0,0,0,.637-2.778l.934-.9a2.67,2.67,0,0,1,1.864-.753h11.9a8.015,8.015,0,0,0,5.62-2.283c.062-.061-.473.569,8.119-9.7A3.581,3.581,0,0,0,39.54,1.241L34.258,6.67a3.6,3.6,0,0,0-2.783-1.333H21.492a11.55,11.55,0,0,0-4.483-.9A11.075,11.075,0,0,0,6.914,10.166a2.674,2.674,0,0,0-2.394.742L.261,15.18a.9.9,0,0,0,0,1.263Zm6.7-20.338a9.773,9.773,0,0,1,3.941.82.894.894,0,0,0,.359.075H31.474a1.79,1.79,0,1,1,0,3.581h-7.3a.9.9,0,1,0,0,1.79h7.3A3.575,3.575,0,0,0,35.024,8.45c5.11-5.253,5.831-5.991,5.861-6.028a1.791,1.791,0,1,1,2.734,2.314l-8.029,9.6a6.234,6.234,0,0,1-4.339,1.745H19.35a4.451,4.451,0,0,0-3.108,1.255l-.761.734L8.468,11.057A9.243,9.243,0,0,1,17.009,6.233ZM5.787,12.174A.893.893,0,0,1,6.9,12.048c.155.094-.29-.311,7.754,7.722a.9.9,0,0,1,0,1.262l-3.7,3.645-8.8-8.863Zm0,0" transform="translate(0 0)"/>
      </g>
      <g id="Group_541" data-name="Group 541" transform="translate(1299.436 692) rotate(-140)">
        <path id="Path_1257-2" data-name="Path 1257" d="M36.6,17.745a2.676,2.676,0,0,1-3.769-.317L26.71,11.134h.006A2.737,2.737,0,0,1,24.09,13.1H13.948a10.707,10.707,0,0,1-4.3.9A10.138,10.138,0,0,1,0,8.053L8.095,0,8.11.012,9.5,1.356a3.579,3.579,0,0,0,2.486,1H23.921a7.132,7.132,0,0,1,4.974,2.021l8.025,9.594A2.674,2.674,0,0,1,36.6,17.745Zm0,0" transform="translate(7.338 7.499)" fill="#fed2a4"/>
        <path id="Path_1259-2" data-name="Path 1259" d="M14.387,4.271,10.051,0,0,10.128,4.259,14.4a1.791,1.791,0,0,0,2.532,0l7.6-7.6A1.791,1.791,0,0,0,14.387,4.271Zm0,0" transform="translate(0.873 0.895)" fill="#7e57c2"/>
        <path id="Path_1260-2" data-name="Path 1260" d="M1.528.262a.9.9,0,1,1-1.267,0A.9.9,0,0,1,1.528.262Zm0,0" transform="translate(19.541 14.489)"/>
        <path id="Path_1262-2" data-name="Path 1262" d="M10.311.265A.9.9,0,0,1,11.575.257l4.34,4.276a2.705,2.705,0,0,1,.637,2.778l.934.9a2.67,2.67,0,0,0,1.864.753h11.9a8.015,8.015,0,0,1,5.62,2.283c.062.061-.473-.569,8.119,9.7a3.581,3.581,0,0,1-5.449,4.648l-5.283-5.429A3.6,3.6,0,0,1,31.474,21.5H21.492a11.55,11.55,0,0,1-4.483.9A11.075,11.075,0,0,1,6.914,16.669a2.674,2.674,0,0,1-2.394-.742L.261,11.656a.9.9,0,0,1,0-1.263Zm6.7,20.338a9.772,9.772,0,0,0,3.941-.82.894.894,0,0,1,.359-.075H31.474a1.79,1.79,0,1,0,0-3.581h-7.3a.9.9,0,1,1,0-1.79h7.3a3.575,3.575,0,0,1,3.549,4.049c5.11,5.253,5.831,5.991,5.861,6.028A1.791,1.791,0,1,0,43.619,22.1L35.59,12.5a6.234,6.234,0,0,0-4.339-1.745H19.35A4.451,4.451,0,0,1,16.242,9.5l-.761-.734L8.468,15.778A9.243,9.243,0,0,0,17.009,20.6ZM5.787,14.662a.893.893,0,0,0,1.108.126c.155-.094-.29.311,7.754-7.722a.9.9,0,0,0,0-1.262l-3.7-3.645-8.8,8.863Zm0,0" transform="translate(0 0)"/>
      </g>
    </g>
  </g>
</svg>
