<svg xmlns="http://www.w3.org/2000/svg" width="64" height="64" viewBox="0 0 64 64">
  <g id="Group_598" data-name="Group 598" transform="translate(-988 -251)">
    <circle id="Ellipse_43" data-name="Ellipse 43" cx="32" cy="32" r="32" transform="translate(988 251)" fill="#f6f8f9" opacity="0.2"/>
    <g id="Group_597" data-name="Group 597" transform="translate(1003.999 267)">
      <path id="Path_1311" data-name="Path 1311" d="M30,18.191V2.863a.934.934,0,0,0-.934-.934H24.338v-1a.934.934,0,1,0-1.867,0v1H18.736v-1a.934.934,0,0,0-1.867,0v1H13.134v-1a.934.934,0,0,0-1.867,0v1H7.532v-1a.934.934,0,0,0-1.867,0v1H.934A.934.934,0,0,0,0,2.863V27.2a.934.934,0,0,0,.934.934H16.483A8.4,8.4,0,1,0,30,18.191ZM5.664,3.8v.934a.934.934,0,0,0,1.867,0V3.8h3.735v.934a.934.934,0,1,0,1.867,0V3.8h3.735v.934a.934.934,0,1,0,1.867,0V3.8H22.47v.934a.934.934,0,1,0,1.867,0V3.8h3.8V7.532H1.867V3.8Zm-3.8,22.47V9.4H28.134v7.084A8.393,8.393,0,0,0,16.416,18.9a.928.928,0,0,0-.42-.1H14.129a.934.934,0,1,0,0,1.867h1.414a8.333,8.333,0,0,0-.428,1.867h-.986a.934.934,0,1,0,0,1.867h.986a8.32,8.32,0,0,0,.428,1.867ZM23.466,30A6.536,6.536,0,1,1,30,23.466,6.543,6.543,0,0,1,23.466,30Zm0,0" fill="#fff"/>
      <path id="Path_1312" data-name="Path 1312" d="M366.668,305.735h-2.8v-2.8a.934.934,0,0,0-1.867,0v3.735a.934.934,0,0,0,.934.934h3.735a.934.934,0,0,0,0-1.867Zm0,0" transform="translate(-339.468 -283.202)" fill="#fff"/>
      <path id="Path_1313" data-name="Path 1313" d="M93.8,182H91.934a.934.934,0,1,0,0,1.867H93.8a.934.934,0,1,0,0-1.867Zm0,0" transform="translate(-85.336 -170.672)" fill="#fff"/>
      <path id="Path_1314" data-name="Path 1314" d="M93.8,242H91.934a.934.934,0,0,0,0,1.867H93.8a.934.934,0,1,0,0-1.867Zm0,0" transform="translate(-85.336 -226.937)" fill="#fff"/>
      <path id="Path_1315" data-name="Path 1315" d="M93.8,302H91.934a.934.934,0,1,0,0,1.867H93.8a.934.934,0,1,0,0-1.867Zm0,0" transform="translate(-85.336 -283.202)" fill="#fff"/>
      <path id="Path_1316" data-name="Path 1316" d="M212.934,183.867H214.8a.934.934,0,0,0,0-1.867h-1.867a.934.934,0,1,0,0,1.867Zm0,0" transform="translate(-198.804 -170.672)" fill="#fff"/>
      <path id="Path_1317" data-name="Path 1317" d="M212.934,243.867H214.8a.934.934,0,0,0,0-1.867h-1.867a.934.934,0,1,0,0,1.867Zm0,0" transform="translate(-198.804 -226.937)" fill="#fff"/>
      <path id="Path_1318" data-name="Path 1318" d="M93.8,362H91.934a.934.934,0,0,0,0,1.867H93.8a.934.934,0,0,0,0-1.867Zm0,0" transform="translate(-85.336 -339.468)" fill="#fff"/>
      <path id="Path_1319" data-name="Path 1319" d="M332.934,183.867H334.8a.934.934,0,1,0,0-1.867h-1.867a.934.934,0,1,0,0,1.867Zm0,0" transform="translate(-311.335 -170.672)" fill="#fff"/>
    </g>
  </g>
</svg>
