<svg id="Group_458" data-name="Group 458" xmlns="http://www.w3.org/2000/svg" width="58.498" height="44.688" viewBox="0 0 58.498 44.688">
  <path id="Path_604" data-name="Path 604" d="M173.452,51.26l-58.5,20.129,17.819,3.554L173.452,51.26Z" transform="translate(-114.955 -51.26)" fill="#7e57c2"/>
  <path id="Path_605" data-name="Path 605" d="M114.955,156.621l17.819,3.554L144.6,153.29Z" transform="translate(-114.955 -136.492)" fill="#6642a3"/>
  <path id="Path_606" data-name="Path 606" d="M223.183,74.943l2.76,21L263.861,51.26Z" transform="translate(-205.364 -51.26)" fill="#3c1c74"/>
  <path id="Path_607" data-name="Path 607" d="M223.183,160.173l2.76,21L242.891,161.2l-2.926-4.767-5.8,4.838.84-7.988h0l-11.826,6.885Z" transform="translate(-205.364 -136.49)" fill="#3c1c74"/>
  <path id="Path_608" data-name="Path 608" d="M277.869,51.26l-34.28,28.616-3.638,16.072Z" transform="translate(-219.372 -51.26)" fill="#fecd0d"/>
  <path id="Path_609" data-name="Path 609" d="M248.177,177.26l-4.588,3.83-3.638,16.072L256.9,177.189l-2.925-4.767-5.8,4.838h0Z" transform="translate(-219.372 -152.474)" fill="#6642a3"/>
  <path id="Path_610" data-name="Path 610" d="M284.669,91.146,296.33,51.26,262.05,79.876l22.619,11.27Z" transform="translate(-237.832 -51.26)" fill="#7e57c2"/>
  <path id="Path_611" data-name="Path 611" d="M266.481,177.26l-4.588,3.83,22.619,11.27-12.235-19.938-5.8,4.838h0Z" transform="translate(-237.701 -152.474)" fill="#6642a3"/>
</svg>
