<svg xmlns="http://www.w3.org/2000/svg" width="91.001" height="90" viewBox="0 0 91.001 90">
  <g id="Group_606" data-name="Group 606" transform="translate(-2 -0.05)">
    <circle id="Ellipse_44" data-name="Ellipse 44" cx="45" cy="45" r="45" transform="translate(2 0.05)" fill="#f2f2f2"/>
    <g id="Group_1682" data-name="Group 1682" transform="translate(-11 -2.738)">
      <path id="ic_star_24px" d="M32.9,49.182l19.1,11.525L46.927,38.986,63.8,24.371,41.581,22.486,32.9,2,24.216,22.486,2,24.371,18.871,38.986,13.8,60.707Z" transform="translate(26.254 16.559)" fill="#7e57c2"/>
      <path id="ic_star_border_24px" d="M24.469,10.134l-8.078-.7L13.235,2,10.078,9.449,2,10.134l6.134,5.314-1.842,7.9,6.943-4.191,6.943,4.191-1.831-7.9ZM13.235,17.054,9.01,19.6,10.134,14.8,6.4,11.561l4.921-.427,1.91-4.528,1.921,4.539,4.921.427-3.73,3.236,1.123,4.808Z" transform="translate(79.532 11.479)" fill="#7e57c2"/>
      <path id="ic_star_border_24px-2" data-name="ic_star_border_24px" d="M24.469,10.134l-8.078-.7L13.235,2,10.078,9.449,2,10.134l6.134,5.314-1.842,7.9,6.943-4.191,6.943,4.191-1.831-7.9ZM13.235,17.054,9.01,19.6,10.134,14.8,6.4,11.561l4.921-.427,1.91-4.528,1.921,4.539,4.921.427-3.73,3.236,1.123,4.808Z" transform="translate(11 57.541)" fill="#7e57c2"/>
    </g>
  </g>
</svg>
