<svg xmlns="http://www.w3.org/2000/svg" width="78.003" height="78" viewBox="0 0 78.003 78">
  <g id="Group_1150" data-name="Group 1150" transform="translate(0 -0.009)">
    <g id="Group_1137" data-name="Group 1137" transform="translate(0 16.199)">
      <g id="Group_1136" data-name="Group 1136">
        <path id="Path_1621" data-name="Path 1621" d="M70.223,130.988a6.374,6.374,0,0,0,1.092-3.575v-1.222a6.408,6.408,0,0,0-10.935-4.538,22.55,22.55,0,0,0-42.758,0,6.408,6.408,0,0,0-10.935,4.538v1.222a6.374,6.374,0,0,0,1.092,3.575A9.819,9.819,0,0,0,0,140.581v3.067a1.524,1.524,0,0,0,1.523,1.523H9.446a1.523,1.523,0,1,0,0-3.047h-6.4v-1.544A6.764,6.764,0,0,1,9.8,133.824h7.211a22.421,22.421,0,0,0,2.992,7.135L2.623,158.342a5.709,5.709,0,0,0,8.074,8.074l9.583-9.583a1.524,1.524,0,1,0-2.155-2.155l-9.583,9.583A2.662,2.662,0,1,1,4.778,160.5l17.064-17.064a22.537,22.537,0,0,0,39.147-9.608H68.2a6.764,6.764,0,0,1,6.756,6.756v1.544H60.635a1.523,1.523,0,1,0,0,3.047H76.479A1.524,1.524,0,0,0,78,143.648v-3.067A9.819,9.819,0,0,0,70.223,130.988Zm-53.76-3.575a3.364,3.364,0,0,1-6.728,0v-1.222a3.364,3.364,0,1,1,6.728,0ZM39,148.323a19.5,19.5,0,1,1,19.5-19.5A19.523,19.523,0,0,1,39,148.323Zm29.266-20.91a3.364,3.364,0,0,1-6.728,0v-1.222a3.364,3.364,0,1,1,6.728,0Z" transform="translate(0 -106.275)" fill="#0a0a0a"/>
      </g>
    </g>
    <g id="Group_1139" data-name="Group 1139" transform="translate(22.548 22.292)">
      <g id="Group_1138" data-name="Group 1138">
        <path id="Path_1622" data-name="Path 1622" d="M164.454,146.275a16.446,16.446,0,0,0-11.283,28.418,1.525,1.525,0,0,0,.177.165,16.423,16.423,0,0,0,22.213,0,1.511,1.511,0,0,0,.177-.165,16.446,16.446,0,0,0-11.283-28.418Zm0,29.86a13.341,13.341,0,0,1-8.3-2.888,9.4,9.4,0,0,1,16.605,0A13.341,13.341,0,0,1,164.454,176.135ZM161.243,162v-1.184a3.21,3.21,0,0,1,6.421,0V162a3.21,3.21,0,0,1-6.421,0Zm13.742,9.016a12.34,12.34,0,0,0-5.829-4.893A6.23,6.23,0,0,0,170.711,162v-1.184a6.257,6.257,0,0,0-12.515,0V162a6.229,6.229,0,0,0,1.556,4.122,12.341,12.341,0,0,0-5.829,4.893,13.407,13.407,0,1,1,21.062,0Z" transform="translate(-148 -146.275)" fill="#0a0a0a"/>
      </g>
    </g>
    <g id="Group_1141" data-name="Group 1141" transform="translate(21.755 60.08)">
      <g id="Group_1140" data-name="Group 1140">
        <path id="Path_1623" data-name="Path 1623" d="M145.4,394.755a1.523,1.523,0,1,0,.446,1.077A1.535,1.535,0,0,0,145.4,394.755Z" transform="translate(-142.8 -394.309)" fill="#0a0a0a"/>
      </g>
    </g>
    <g id="Group_1143" data-name="Group 1143" transform="translate(37.509 0.009)">
      <g id="Group_1142" data-name="Group 1142">
        <path id="Path_1624" data-name="Path 1624" d="M247.727.009A1.524,1.524,0,0,0,246.2,1.532V6.716a1.523,1.523,0,1,0,3.047,0V1.532A1.524,1.524,0,0,0,247.727.009Z" transform="translate(-246.203 -0.009)" fill="#0a0a0a"/>
      </g>
    </g>
    <g id="Group_1145" data-name="Group 1145" transform="translate(37.508 10.216)">
      <g id="Group_1144" data-name="Group 1144">
        <path id="Path_1625" data-name="Path 1625" d="M248.8,67.455a1.522,1.522,0,1,0,.447,1.077A1.532,1.532,0,0,0,248.8,67.455Z" transform="translate(-246.2 -67.009)" fill="#0a0a0a"/>
      </g>
    </g>
    <g id="Group_1147" data-name="Group 1147" transform="translate(46.669 5.539)">
      <g id="Group_1146" data-name="Group 1146">
        <path id="Path_1626" data-name="Path 1626" d="M311.61,36.753a1.524,1.524,0,0,0-2.155,0l-2.678,2.678a1.524,1.524,0,0,0,2.155,2.155l2.678-2.678A1.524,1.524,0,0,0,311.61,36.753Z" transform="translate(-306.331 -36.307)" fill="#0a0a0a"/>
      </g>
    </g>
    <g id="Group_1149" data-name="Group 1149" transform="translate(25.609 5.532)">
      <g id="Group_1148" data-name="Group 1148">
        <path id="Path_1627" data-name="Path 1627" d="M173.4,39.409l-2.7-2.7a1.524,1.524,0,0,0-2.155,2.155l2.7,2.7a1.524,1.524,0,0,0,2.155-2.155Z" transform="translate(-168.091 -36.259)" fill="#0a0a0a"/>
      </g>
    </g>
  </g>
</svg>
