<svg xmlns="http://www.w3.org/2000/svg" width="25.059" height="23.394" viewBox="0 0 25.059 23.394">
  <path id="XMLID_229_" d="M29.168,76.321c-2.592,4.5-.944,11.326,1.922,15.465,1.431,2.07,2.88,3.927,4.864,3.927l.113,0a6.007,6.007,0,0,0,2.257-.6A6.182,6.182,0,0,1,41,94.476a5.814,5.814,0,0,1,2.545.613,5.393,5.393,0,0,0,2.438.585c2.235-.042,3.608-2.046,4.818-3.815a16.909,16.909,0,0,0,2.111-4.324l.009-.027a.251.251,0,0,0-.134-.308l-.018-.008a6.407,6.407,0,0,1-3.883-5.867A6.6,6.6,0,0,1,52,75.811l.025-.015a.251.251,0,0,0,.071-.353,7.253,7.253,0,0,0-5.7-3.1c-.162-.016-.33-.024-.5-.024a9.944,9.944,0,0,0-3.58.894,5.755,5.755,0,0,1-1.715.512,5.611,5.611,0,0,1-1.774-.519,8.6,8.6,0,0,0-3.127-.794h-.079A7.667,7.667,0,0,0,29.168,76.321Z" transform="translate(-27.875 -72.32)"/>
</svg>
