<svg id="Group_1324" data-name="Group 1324" xmlns="http://www.w3.org/2000/svg" width="10.816" height="12.98" viewBox="0 0 10.816 12.98">
  <g id="Group_545" data-name="Group 545" transform="translate(0)">
    <g id="Group_544" data-name="Group 544">
      <path id="Path_1265" data-name="Path 1265" d="M53.453,10.948,52.524,9.4a4.6,4.6,0,0,1-.655-2.366V5.679a3.791,3.791,0,0,0-2.7-3.626V1.082a1.082,1.082,0,0,0-2.163,0v.971a3.791,3.791,0,0,0-2.7,3.626V7.035A4.6,4.6,0,0,1,43.642,9.4l-.929,1.548a.271.271,0,0,0,.231.41H53.221a.27.27,0,0,0,.232-.409Z" transform="translate(-42.675)"/>
    </g>
  </g>
  <g id="Group_547" data-name="Group 547" transform="translate(3.705 11.898)">
    <g id="Group_546" data-name="Group 546">
      <path id="Path_1266" data-name="Path 1266" d="M188.815,469.333a1.882,1.882,0,0,0,3.406,0Z" transform="translate(-188.815 -469.333)"/>
    </g>
  </g>
</svg>
