<svg id="_002-contest" data-name="002-contest" xmlns="http://www.w3.org/2000/svg" width="14.573" height="17.227" viewBox="0 0 14.573 17.227">
  <path id="Path_1384" data-name="Path 1384" d="M13.9,1.973H11.279V.673A.673.673,0,0,0,10.606,0H3.965a.673.673,0,0,0-.673.673v1.3H.673A.673.673,0,0,0,0,2.646v2a4.646,4.646,0,0,0,4.64,4.64h.028a9.565,9.565,0,0,0,1.944,2.29v1.7a4.954,4.954,0,0,0-1.931.694,5.106,5.106,0,0,0-1.967,2.279.673.673,0,0,0,.6.974h7.94a.673.673,0,0,0,.6-.974,5.118,5.118,0,0,0-1.967-2.279,4.954,4.954,0,0,0-1.934-.694v-1.7A9.568,9.568,0,0,0,9.9,9.286h.03a4.646,4.646,0,0,0,4.64-4.64v-2A.673.673,0,0,0,13.9,1.973ZM1.346,4.646V3.319H3.292V4.367a9.553,9.553,0,0,0,.672,3.5A3.3,3.3,0,0,1,1.346,4.646Zm8.717,11.235H4.509a3.614,3.614,0,0,1,5.554,0Zm-2.778-5.5A8.1,8.1,0,0,1,4.638,4.367V1.346h5.3V4.367A8.1,8.1,0,0,1,7.285,10.376Zm5.942-5.731a3.3,3.3,0,0,1-2.621,3.225,9.554,9.554,0,0,0,.672-3.5V3.319h1.948Zm0,0" transform="translate(0)"/>
  <path id="Path_1385" data-name="Path 1385" d="M179.646,76.037l-.888.538c-.348.209-.186.774.135.774.13,0,.205-.088.363-.175V80.6c0,.431,1.05.431,1.05,0V76.32C180.306,76.046,179.848,75.911,179.646,76.037Zm0,0" transform="translate(-172.555 -73.433)"/>
</svg>
