<svg id="_002-search" data-name="002-search" xmlns="http://www.w3.org/2000/svg" width="25.059" height="25.06" viewBox="0 0 25.059 25.06">
  <path id="Path_592" data-name="Path 592" d="M5.554,146.644,4.681,149.9l-3.188.067a12.552,12.552,0,0,1-.092-11.7h0l2.838.52,1.243,2.821a7.478,7.478,0,0,0,.07,5.035Z" transform="translate(0 -131.501)" fill="#fbbb00"/>
  <path id="Path_593" data-name="Path 593" d="M273.663,208.176a12.525,12.525,0,0,1-4.467,12.112h0l-3.575-.182-.506-3.159a7.468,7.468,0,0,0,3.213-3.813h-6.7v-4.957h12.035Z" transform="translate(-248.823 -197.987)" fill="#518ef8"/>
  <path id="Path_594" data-name="Path 594" d="M49.389,316.565h0a12.534,12.534,0,0,1-18.881-3.833l4.06-3.324a7.452,7.452,0,0,0,10.738,3.815Z" transform="translate(-29.016 -294.265)" fill="#28b446"/>
  <path id="Path_595" data-name="Path 595" d="M47.75,2.885,43.691,6.208a7.451,7.451,0,0,0-10.985,3.9L28.625,6.767h0A12.532,12.532,0,0,1,47.75,2.885Z" transform="translate(-27.223)" fill="#f14336"/>
</svg>
