<svg id="_001-home" data-name="001-home" xmlns="http://www.w3.org/2000/svg" width="24.648" height="19.616" viewBox="0 0 24.648 19.616">
  <g id="Group_795" data-name="Group 795" transform="translate(0 0)">
    <path id="Path_1382" data-name="Path 1382" d="M74.5,120.939l-8.791,7.247a.208.208,0,0,1-.008.046.209.209,0,0,0-.008.046v7.339a.993.993,0,0,0,.979.979h5.871v-5.871h3.914V136.6h5.871a.994.994,0,0,0,.979-.979v-7.339a.215.215,0,0,0-.015-.091Z" transform="translate(-62.18 -116.979)" fill="#fff"/>
    <path id="Path_1383" data-name="Path 1383" d="M24.478,56.55,21.13,53.767V47.529a.471.471,0,0,0-.489-.489H17.705a.471.471,0,0,0-.489.489v2.981l-3.73-3.119a1.9,1.9,0,0,0-2.324,0L.169,56.55A.444.444,0,0,0,0,56.878a.5.5,0,0,0,.107.359l.948,1.131a.521.521,0,0,0,.321.168.568.568,0,0,0,.367-.107l10.58-8.822L22.9,58.43a.471.471,0,0,0,.321.107h.046a.522.522,0,0,0,.321-.168l.948-1.131a.5.5,0,0,0,.107-.36A.445.445,0,0,0,24.478,56.55Z" transform="translate(0.001 -46.994)" fill="#fff"/>
  </g>
</svg>
