<svg xmlns="http://www.w3.org/2000/svg" width="25.059" height="25.06" viewBox="0 0 25.059 25.06">
  <path id="_005-linkedin" data-name="005-linkedin" d="M22.793,0H2.267A2.267,2.267,0,0,0,0,2.267V22.793A2.267,2.267,0,0,0,2.267,25.06H22.793a2.267,2.267,0,0,0,2.267-2.267V2.267A2.267,2.267,0,0,0,22.793,0ZM7.754,21.638a.66.66,0,0,1-.66.66H4.287a.66.66,0,0,1-.66-.66V9.867a.66.66,0,0,1,.66-.66H7.095a.66.66,0,0,1,.66.66ZM5.691,8.1A2.668,2.668,0,1,1,8.358,5.43,2.668,2.668,0,0,1,5.691,8.1ZM22.43,21.691a.607.607,0,0,1-.607.607H18.81a.607.607,0,0,1-.607-.607V16.17c0-.824.242-3.609-2.153-3.609-1.857,0-2.234,1.907-2.309,2.762v6.368a.607.607,0,0,1-.607.607H10.22a.607.607,0,0,1-.607-.607V9.813a.607.607,0,0,1,.607-.607h2.914a.607.607,0,0,1,.607.607V10.84a4.137,4.137,0,0,1,3.891-1.831c4.825,0,4.8,4.508,4.8,6.985v5.7Z" fill="#0077b7"/>
</svg>
