<svg xmlns="http://www.w3.org/2000/svg" xmlns:xlink="http://www.w3.org/1999/xlink" width="1505.658" height="1309.591" viewBox="0 0 1505.658 1309.591">
  <defs>
    <linearGradient id="linear-gradient" x1="0.48" y1="0.749" x2="0.045" y2="0.166" gradientUnits="objectBoundingBox">
      <stop offset="0" stop-color="#7e57c2"/>
      <stop offset="1" stop-color="#4600bf"/>
    </linearGradient>
    <linearGradient id="linear-gradient-2" x1="0.5" y1="1.161" x2="0.5" y2="0.272" gradientUnits="objectBoundingBox">
      <stop offset="0" stop-color="#4f2280"/>
      <stop offset="1" stop-color="#d4145a"/>
    </linearGradient>
    <linearGradient id="linear-gradient-3" x1="0.5" y1="0.697" x2="0.5" y2="-0.388" xlink:href="#linear-gradient-2"/>
    <linearGradient id="linear-gradient-4" x1="0.5" y1="0.987" x2="0.5" y2="-0.275" xlink:href="#linear-gradient-2"/>
    <linearGradient id="linear-gradient-5" x1="0" y1="0.5" x2="1" y2="0.5" xlink:href="#linear-gradient-2"/>
  </defs>
  <g id="Group_2119" data-name="Group 2119" transform="translate(-1086 169.888)">
    <path id="Path_618" data-name="Path 618" d="M1664.159,1566h104.308c43.871,0,150.92-25.568,150.92-156.9s-9.932-176.577,52.973-229.55,230.653-37.522,226.239-192.027,256.036-494.415-180.991-633.469S752.877,195.141,766.12,490.907c15.636,349.189,234.406,363.038,383.317,422.314,127.281,50.664,130.865,132.371,122.134,229.55-9,100.1,126.535,104.489,134.64,219.551,7.725,109.689,73.35,203.681,257.948,203.681" transform="translate(320.037 -426.301)" fill="url(#linear-gradient)"/>
    <g id="Group_939" data-name="Group 939" transform="translate(0 -64)">
      <g id="Group_475" data-name="Group 475" transform="translate(322.415 -170.674)">
        <path id="Path_622" data-name="Path 622" d="M867.16,414.072c-2.241.968-4.52-.4-5.46-2.578a3.956,3.956,0,0,1,1.986-5.474,4.362,4.362,0,0,1,5.792,2.116A4.613,4.613,0,0,1,867.16,414.072Z" transform="translate(23.288 10.527)" fill="#ef5b5b"/>
        <path id="Path_623" data-name="Path 623" d="M862.769,413.08a2.24,2.24,0,0,1-2.9-1.372,2.106,2.106,0,0,1,1.056-2.913A2.32,2.32,0,0,1,864,409.921,2.455,2.455,0,0,1,862.769,413.08Z" transform="translate(20.388 15.746)" fill="#ef5b5b"/>
        <path id="Path_624" data-name="Path 624" d="M882.113,429.773a2.24,2.24,0,0,1-2.9-1.375,2.1,2.1,0,0,1,1.057-2.91,2.32,2.32,0,0,1,3.082,1.126A2.456,2.456,0,0,1,882.113,429.773Z" transform="translate(54.55 45.226)" fill="#ef5b5b"/>
        <path id="Path_625" data-name="Path 625" d="M993.484,435.467a3.927,3.927,0,0,0-1.989.553l-13.1-13.1a3.969,3.969,0,1,0-6.882,0l-13.125,13.122a3.857,3.857,0,0,0-3.975-.047L941.338,422.92a4.017,4.017,0,1,0-1.5,1.5l13.075,13.078a3.924,3.924,0,0,0-.528,1.945,3.969,3.969,0,0,0,7.939,0,3.9,3.9,0,0,0-.481-1.859l13.164-13.164a3.842,3.842,0,0,0,3.889,0l13.119,13.119a3.923,3.923,0,0,0-.506,1.9,3.971,3.971,0,1,0,3.972-3.972Z" transform="translate(151.568 30.609)" fill="#fff"/>
        <path id="Path_626" data-name="Path 626" d="M1122.648,458.378V758.965a9.019,9.019,0,0,1-9.017,9.017H948.386a9.019,9.019,0,0,1-9.017-9.017V458.378a9.042,9.042,0,0,1,9.017-9.045H1113.63A9.043,9.043,0,0,1,1122.648,458.378Z" transform="translate(161.182 87.7)" fill="#da4444"/>
        <path id="Path_627" data-name="Path 627" d="M1095.274,460.251V720.731a4.881,4.881,0,0,1-4.9,4.868H950.3a4.881,4.881,0,0,1-4.9-4.868V460.251a4.881,4.881,0,0,1,4.9-4.868h140.073A4.881,4.881,0,0,1,1095.274,460.251Z" transform="translate(171.849 98.385)" fill="#fbc96b"/>
        <g id="Group_464" data-name="Group 464" transform="translate(1183.707 830.96)">
          <path id="Path_628" data-name="Path 628" d="M977.915,572.562h0a8.483,8.483,0,0,1-8.484-8.484h0a8.483,8.483,0,0,1,8.484-8.484h0a8.483,8.483,0,0,1,8.483,8.484h0A8.483,8.483,0,0,1,977.915,572.562Z" transform="translate(-969.432 -555.595)" fill="#f66"/>
        </g>
        <path id="Path_629" data-name="Path 629" d="M1095.274,460.251v79.441H945.409V460.251a4.881,4.881,0,0,1,4.9-4.868h140.073A4.881,4.881,0,0,1,1095.274,460.251Z" transform="translate(171.849 98.385)" opacity="0.33" fill="url(#linear-gradient-2)"/>
        <circle id="Ellipse_27" data-name="Ellipse 27" cx="34.576" cy="34.576" r="34.576" transform="translate(1157.614 603.502)" opacity="0.33" fill="url(#linear-gradient-3)"/>
        <path id="Path_631" data-name="Path 631" d="M1039.749,498.553v92.774a47.4,47.4,0,0,1-6.611.47,46.857,46.857,0,0,1,0-93.714c.525,0,1.051.028,1.577.055A50.111,50.111,0,0,1,1039.749,498.553Z" transform="translate(244.081 173.796)" opacity="0.2"/>
        <g id="Group_465" data-name="Group 465" transform="translate(1241.44 660.814)">
          <path id="Path_632" data-name="Path 632" d="M1046.676,563.778a46.819,46.819,0,0,0-20.925-68.316l-18.508,43.04Z" transform="translate(-960.389 -491.648)" fill="#4c37a8"/>
          <path id="Path_633" data-name="Path 633" d="M1052.2,585.3l-15.044-44.359,1.557-46.8c-.526-.033-1.035-.05-1.557-.05a46.854,46.854,0,0,0,0,93.708A46.251,46.251,0,0,0,1052.2,585.3Z" transform="translate(-990.304 -494.083)" fill="#552283"/>
          <path id="Path_634" data-name="Path 634" d="M1022.287,555.381a46.648,46.648,0,0,0,24.388-19.083l-39.433-25.276Z" transform="translate(-960.389 -464.168)" fill="#eb5259"/>
          <path id="Path_635" data-name="Path 635" d="M1025.751,497.866a45.707,45.707,0,0,0-16.95-3.765l-1.558,46.8Z" transform="translate(-960.389 -494.051)" fill="#c5d7d8"/>
        </g>
        <path id="Path_636" data-name="Path 636" d="M1055.668,497.9a45.73,45.73,0,0,0-16.953-3.765c-.526-.033-1.035-.05-1.557-.05a46.854,46.854,0,0,0,0,93.708,46.9,46.9,0,0,0,46.854-46.854A46.811,46.811,0,0,0,1055.668,497.9Z" transform="translate(251.136 166.731)" opacity="0.33" fill="url(#linear-gradient-4)"/>
        <g id="Group_466" data-name="Group 466" transform="translate(1189.425 676.353)">
          <path id="Path_637" data-name="Path 637" d="M974.265,505.24a2.755,2.755,0,0,1-1.964-.83,2.664,2.664,0,0,1-.8-1.936,2.455,2.455,0,0,1,.221-1.076,2.713,2.713,0,0,1,.581-.888,2.092,2.092,0,0,1,.412-.332,4.521,4.521,0,0,1,.5-.277,3.324,3.324,0,0,1,.5-.138,2.366,2.366,0,0,1,1.079,0,3.02,3.02,0,0,1,.529.138,2.608,2.608,0,0,1,.467.277,1.7,1.7,0,0,1,.445.332,2.759,2.759,0,0,1,.581.888,2.935,2.935,0,0,1,.221,1.076,2.685,2.685,0,0,1-.8,1.936A2.773,2.773,0,0,1,974.265,505.24Z" transform="translate(-971.499 -499.701)" fill="#fff"/>
          <path id="Path_638" data-name="Path 638" d="M971.5,516.893a2.776,2.776,0,0,1,2.766-2.766h0a2.778,2.778,0,0,1,2.766,2.766h0a2.776,2.776,0,0,1-2.766,2.766h0A2.774,2.774,0,0,1,971.5,516.893Zm0-10.594a2.774,2.774,0,0,1,2.766-2.766h0a2.776,2.776,0,0,1,2.766,2.766h0a2.776,2.776,0,0,1-2.766,2.766h0A2.774,2.774,0,0,1,971.5,506.3Z" transform="translate(-971.499 -492.932)" fill="#fff"/>
          <path id="Path_639" data-name="Path 639" d="M974.265,516.74a2.755,2.755,0,0,1-1.964-.83,3.377,3.377,0,0,1-.611-.885,2.723,2.723,0,0,1-.191-1.051,2.843,2.843,0,0,1,.8-1.964,4.386,4.386,0,0,1,.412-.36l.5-.249a3.288,3.288,0,0,1,.5-.138,2.366,2.366,0,0,1,1.079,0,2.994,2.994,0,0,1,.529.138c.163.083.332.166.467.249a2.8,2.8,0,0,1,.445.36,2.757,2.757,0,0,1,.581.888,3.042,3.042,0,0,1,.221,1.076,2.732,2.732,0,0,1-.8,1.936A2.773,2.773,0,0,1,974.265,516.74Z" transform="translate(-971.499 -479.391)" fill="#fff"/>
          <path id="Path_640" data-name="Path 640" d="M995.155,513.969a2.755,2.755,0,0,1,2.766-2.766h0a2.741,2.741,0,0,1,2.766,2.766h0a2.758,2.758,0,0,1-2.766,2.766h0A2.772,2.772,0,0,1,995.155,513.969Zm-10.013,0a2.756,2.756,0,0,1,2.766-2.766h0a2.758,2.758,0,0,1,2.766,2.766h0a2.776,2.776,0,0,1-2.766,2.766h0A2.774,2.774,0,0,1,985.142,513.969Zm-10.013,0a2.731,2.731,0,0,1,2.739-2.766h0a2.764,2.764,0,0,1,2.794,2.766h0a2.782,2.782,0,0,1-2.794,2.766h0A2.749,2.749,0,0,1,975.129,513.969Z" transform="translate(-965.088 -479.387)" fill="#fff"/>
          <path id="Path_641" data-name="Path 641" d="M988.765,516.713a2.755,2.755,0,0,1-1.964-.83,2.664,2.664,0,0,1-.8-1.936,2.844,2.844,0,0,1,.8-1.964,2.766,2.766,0,0,1,4.73,1.964,2.685,2.685,0,0,1-.8,1.936A2.774,2.774,0,0,1,988.765,516.713Z" transform="translate(-945.891 -479.364)" fill="#fff"/>
        </g>
        <rect id="Rectangle_136" data-name="Rectangle 136" width="92.204" height="5.532" transform="translate(1130.875 730.179)" fill="#dda345"/>
        <rect id="Rectangle_137" data-name="Rectangle 137" width="92.204" height="5.532" transform="translate(1130.875 746.886)" fill="#dda345"/>
        <rect id="Rectangle_138" data-name="Rectangle 138" width="35.038" height="5.532" transform="translate(1130.875 762.826)" fill="#dda345"/>
        <path id="Path_642" data-name="Path 642" d="M962.374,569.485a28.006,28.006,0,1,1,56.013,0" transform="translate(201.811 250.435)" opacity="0.33" fill="url(#linear-gradient-5)"/>
        <rect id="Rectangle_139" data-name="Rectangle 139" width="122.166" height="5.532" transform="translate(1131.107 566.17)" fill="url(#linear-gradient-5)"/>
        <path id="Path_643" data-name="Path 643" d="M1114,578.538a2.741,2.741,0,0,1,2.766-2.766h0a2.757,2.757,0,0,1,2.766,2.766h0a2.774,2.774,0,0,1-2.766,2.766h0A2.758,2.758,0,0,1,1114,578.538Zm0-11.064a2.741,2.741,0,0,1,2.766-2.766h0a2.756,2.756,0,0,1,2.766,2.766h0a2.774,2.774,0,0,1-2.766,2.766h0A2.758,2.758,0,0,1,1114,567.474Zm0-11.064a2.741,2.741,0,0,1,2.766-2.766h0a2.756,2.756,0,0,1,2.766,2.766h0a2.774,2.774,0,0,1-2.766,2.766h0A2.758,2.758,0,0,1,1114,556.409Zm0-11.064a2.741,2.741,0,0,1,2.766-2.766h0a2.756,2.756,0,0,1,2.766,2.766h0a2.774,2.774,0,0,1-2.766,2.766h0A2.758,2.758,0,0,1,1114,545.345Zm0-11.064a2.741,2.741,0,0,1,2.766-2.766h0a2.756,2.756,0,0,1,2.766,2.766h0a2.774,2.774,0,0,1-2.766,2.766h0A2.758,2.758,0,0,1,1114,534.281Zm0-11.064a2.741,2.741,0,0,1,2.766-2.766h0a2.757,2.757,0,0,1,2.766,2.766h0a2.774,2.774,0,0,1-2.766,2.766h0A2.758,2.758,0,0,1,1114,523.217Zm0-11.064a2.741,2.741,0,0,1,2.766-2.766h0a2.757,2.757,0,0,1,2.766,2.766h0a2.774,2.774,0,0,1-2.766,2.766h0A2.758,2.758,0,0,1,1114,512.152Zm0-11.064a2.741,2.741,0,0,1,2.766-2.766h0a2.757,2.757,0,0,1,2.766,2.766h0a2.774,2.774,0,0,1-2.766,2.766h0A2.758,2.758,0,0,1,1114,501.088Zm0-11.064a2.741,2.741,0,0,1,2.766-2.766h0a2.757,2.757,0,0,1,2.766,2.766h0a2.774,2.774,0,0,1-2.766,2.766h0A2.758,2.758,0,0,1,1114,490.024Zm0-11.064a2.741,2.741,0,0,1,2.766-2.766h0a2.757,2.757,0,0,1,2.766,2.766h0a2.774,2.774,0,0,1-2.766,2.766h0A2.758,2.758,0,0,1,1114,478.96Zm0-11.064a2.741,2.741,0,0,1,2.766-2.766h0a2.757,2.757,0,0,1,2.766,2.766h0a2.774,2.774,0,0,1-2.766,2.766h0A2.758,2.758,0,0,1,1114,467.9Zm0-11.064a2.741,2.741,0,0,1,2.766-2.766h0a2.757,2.757,0,0,1,2.766,2.766h0a2.774,2.774,0,0,1-2.766,2.766h0A2.758,2.758,0,0,1,1114,456.831Zm0-11.064a2.741,2.741,0,0,1,2.766-2.766h0a2.756,2.756,0,0,1,2.766,2.766h0a2.774,2.774,0,0,1-2.766,2.766h0A2.758,2.758,0,0,1,1114,445.767Zm-2.766-8.3A2.741,2.741,0,0,1,1114,434.7h0a2.756,2.756,0,0,1,2.766,2.766h0a2.774,2.774,0,0,1-2.766,2.766h0A2.758,2.758,0,0,1,1111.237,437.469Zm-11.064,0a2.741,2.741,0,0,1,2.766-2.766h0a2.757,2.757,0,0,1,2.766,2.766h0a2.774,2.774,0,0,1-2.766,2.766h0A2.758,2.758,0,0,1,1100.173,437.469Zm-11.064,0a2.741,2.741,0,0,1,2.766-2.766h0a2.756,2.756,0,0,1,2.766,2.766h0a2.774,2.774,0,0,1-2.766,2.766h0A2.758,2.758,0,0,1,1089.109,437.469Zm-11.064,0a2.741,2.741,0,0,1,2.766-2.766h0a2.757,2.757,0,0,1,2.766,2.766h0a2.774,2.774,0,0,1-2.766,2.766h0A2.758,2.758,0,0,1,1078.044,437.469Zm-11.064,0a2.741,2.741,0,0,1,2.766-2.766h0a2.756,2.756,0,0,1,2.766,2.766h0a2.774,2.774,0,0,1-2.766,2.766h0A2.758,2.758,0,0,1,1066.98,437.469Zm-11.064,0a2.741,2.741,0,0,1,2.766-2.766h0a2.757,2.757,0,0,1,2.766,2.766h0a2.774,2.774,0,0,1-2.766,2.766h0A2.758,2.758,0,0,1,1055.916,437.469Zm-11.064,0a2.758,2.758,0,0,1,2.766-2.766h0a2.756,2.756,0,0,1,2.766,2.766h0a2.774,2.774,0,0,1-2.766,2.766h0A2.776,2.776,0,0,1,1044.852,437.469Zm-11.064,0a2.741,2.741,0,0,1,2.766-2.766h0a2.757,2.757,0,0,1,2.766,2.766h0a2.774,2.774,0,0,1-2.766,2.766h0A2.758,2.758,0,0,1,1033.787,437.469Zm-11.064,0a2.741,2.741,0,0,1,2.766-2.766h0a2.756,2.756,0,0,1,2.766,2.766h0a2.774,2.774,0,0,1-2.766,2.766h0A2.758,2.758,0,0,1,1022.723,437.469Zm-11.064,0a2.741,2.741,0,0,1,2.766-2.766h0a2.756,2.756,0,0,1,2.766,2.766h0a2.774,2.774,0,0,1-2.766,2.766h0A2.758,2.758,0,0,1,1011.659,437.469Zm-11.064,0a2.741,2.741,0,0,1,2.766-2.766h0a2.756,2.756,0,0,1,2.766,2.766h0a2.774,2.774,0,0,1-2.766,2.766h0A2.758,2.758,0,0,1,1000.595,437.469Zm-11.064,0A2.741,2.741,0,0,1,992.3,434.7h0a2.756,2.756,0,0,1,2.766,2.766h0a2.774,2.774,0,0,1-2.766,2.766h0A2.758,2.758,0,0,1,989.531,437.469Zm-11.064,0a2.741,2.741,0,0,1,2.766-2.766h0A2.757,2.757,0,0,1,984,437.469h0a2.774,2.774,0,0,1-2.766,2.766h0A2.758,2.758,0,0,1,978.466,437.469Zm-11.064,0a2.741,2.741,0,0,1,2.766-2.766h0a2.756,2.756,0,0,1,2.766,2.766h0a2.774,2.774,0,0,1-2.766,2.766h0A2.758,2.758,0,0,1,967.4,437.469Zm-11.064,0A2.741,2.741,0,0,1,959.1,434.7h0a2.756,2.756,0,0,1,2.766,2.766h0a2.774,2.774,0,0,1-2.766,2.766h0A2.758,2.758,0,0,1,956.338,437.469Z" transform="translate(191.151 61.863)" fill="#fff"/>
        <g id="Group_468" data-name="Group 468" transform="translate(981.722 460.815)">
          <path id="Path_644" data-name="Path 644" d="M1046.274,426.646V687.125a4.882,4.882,0,0,1-4.9,4.868H901.3a4.881,4.881,0,0,1-4.9-4.868V426.646a4.881,4.881,0,0,1,4.9-4.868h140.073A4.881,4.881,0,0,1,1046.274,426.646Z" transform="translate(-896.409 -421.778)" fill="#7e57c2" opacity="0.5"/>
        </g>
        <g id="Group_471" data-name="Group 471" transform="translate(987.715 595.923)">
          <ellipse id="Ellipse_28" data-name="Ellipse 28" cx="71.935" cy="8.861" rx="71.935" ry="8.861" transform="translate(0 356.138)" fill="#d8bda7" opacity="0.32"/>
          <path id="Path_645" data-name="Path 645" d="M986.182,500.459c.525-.13.866.177.119.7-1.549,1.084-3.825,4.193-4.73,5.311-1.331,1.646-3.5,5.22-6.24,7.134s-15.307,7.413-17.293,7.665c-1.875.238-5.36-.174-1.1-8.1,2.241-4.163,3.574-4.9,6.179-5.908,2.257-.874,7.529-3.386,8.315-3.123s.293,1.438-5.195,4.71c-.866,1,3.814,2.393,5.568,2.055s2.874-6.392,4-7.463a2.488,2.488,0,0,1,2.464-.857c.6.216-.622,1.845-1.46,3.759a3.839,3.839,0,0,0-.3,3.031s4.487-5.847,6.2-7.131A6.961,6.961,0,0,1,986.182,500.459Z" transform="translate(-799.088 -417.984)" fill="#e49f98"/>
          <path id="Path_646" data-name="Path 646" d="M961.448,525.178a75.9,75.9,0,0,0,6.271-9.219c1.209-2.116,7.454-4.879,11.841-4.135,0,0,2.312-7.67,3.707-8.409s2.514-.365,1.709,1.148a47.737,47.737,0,0,0-2.055,5.9s3.436,1.378,3.936-1.637,3.04-7.175,4.893-7.637,2.005.138.49,1.961-2.163,5.023-1.8,5.972-3.126,3.792-6.094,5.582-11.009,5.372-13.3,7.781-14.361,19.21-14.361,19.21l-8.683-4.271Z" transform="translate(-811.271 -416.912)" fill="#f8b7b0"/>
          <path id="Path_647" data-name="Path 647" d="M937.723,522.989a23.009,23.009,0,0,0,21.028-7.775c2.293-2.932-5.1-5.861-7.773-8.793-1.142-1.25-1.613-3.283-1.643-5.872a70.033,70.033,0,0,1,1.643-12.989l-23.069-4.08s.763,11.6.763,15.933a6.55,6.55,0,0,1-.279,2.019c-.841,2.7-3.6,3.853-8,7.41C915.036,513.175,926.252,521.46,937.723,522.989Z" transform="translate(-862.483 -447.919)" fill="#f8b7b0"/>
          <path id="Path_648" data-name="Path 648" d="M923.3,493.765c-1.978-.191-3.176.21-3.812-8.857-.274-3.889-.255-7.266,3.535-11.264,0,0,4.868-1.054,5.435,5.2S927.508,492.606,923.3,493.765Z" transform="translate(-861.822 -465.405)" fill="#1c1e38"/>
          <path id="Path_649" data-name="Path 649" d="M922.993,499.41a6.909,6.909,0,0,1-.041.81c2.569,2.39,5.518,4.19,7.908,4.19,3.72,0,8.3-1.856,12.837-5.767a87.72,87.72,0,0,1,1.6-11.086l-23.066-4.08S922.993,495.076,922.993,499.41Z" transform="translate(-856.801 -447.921)" fill="#e49f98"/>
          <path id="Path_650" data-name="Path 650" d="M952.882,496.92c-.993,9.922-1.657,14.729-5.991,18.79S938.1,521.7,934.529,521.7c-4.461,0-11.089-7.042-12.234-11.241a76.86,76.86,0,0,1-1.4-26.4c.722-5.507,7.518-12.187,14.527-12.187S955.3,472.681,952.882,496.92Z" transform="translate(-860.141 -468.425)" fill="#f8b7b0"/>
          <path id="Path_651" data-name="Path 651" d="M920,486.582c.808,3.618,3,6.21,4.891,5.787s2.78-3.7,1.972-7.316-3-6.207-4.891-5.786S919.192,482.964,920,486.582Z" transform="translate(-861.271 -455.439)" fill="#f8b7b0"/>
          <path id="Path_652" data-name="Path 652" d="M953.272,481.333s-8,4.412-20.817,2.595c-12.032-1.7-12.024-4.636-12.024-4.636s2.083-8.027,10.367-8.539S950.935,470.753,953.272,481.333Z" transform="translate(-859.978 -470.623)" fill="#1c1e38"/>
          <path id="Path_653" data-name="Path 653" d="M934.1,493.765c-1.978-.191-3.175.21-3.811-8.857-.274-3.889-.257-7.266,3.535-11.264,0,0,4.868-1.054,5.435,5.2S938.3,492.606,934.1,493.765Z" transform="translate(-842.757 -465.405)" fill="#1c1e38"/>
          <path id="Path_654" data-name="Path 654" d="M1007.8,553l23.359-11.8,2.077,14.71L999.461,573.8,984.677,540.66s-.238,49.474-.891,56.342c-.639,6.7-2.251,7.383-5.142,7.383h-46.73c-3.186,0-5.474-3.427-4.929-9.515.442-4.929,3.582-45.2,2.251-63.21,0,0-2.31,15.476-3.74,32.54l29.232,25.733-3.986,11.648-41.5-28.291s.387-57.587,12.76-69.077c4.757-4.42,16.369-12.406,21.467-13.426l12.9,7.446,1.1,2.921.65-3.009,8.293-6.2c7.645,1.3,18.693,8.951,20.306,12.093C990.483,511.375,1007.8,553,1007.8,553Z" transform="translate(-879.74 -435.016)" fill="#f22f5d"/>
          <path id="Path_655" data-name="Path 655" d="M931.593,484.01c-1.4,3.433-1.081,6.81.717,7.546s4.392-1.455,5.795-4.885,1.079-6.81-.716-7.543S933,480.58,931.593,484.01Z" transform="translate(-841.809 -455.855)" fill="#f8b7b0"/>
          <path id="Path_656" data-name="Path 656" d="M924.12,489.53A7.989,7.989,0,0,0,920.8,495a50.113,50.113,0,0,0,10.331,12.956s1.823-6.315,4.824-7.507Z" transform="translate(-859.33 -437.233)" fill="#cc1d4f"/>
          <path id="Path_657" data-name="Path 657" d="M936.78,489.4a14.694,14.694,0,0,1,.987,6.531s-3.189,7.673-8.852,12.173c0,0,.739-4.6-2.005-7.513Z" transform="translate(-848.534 -437.464)" fill="#cc1d4f"/>
          <g id="Group_469" data-name="Group 469" transform="translate(41.389 130.35)">
            <path id="Path_658" data-name="Path 658" d="M921.24,519.516c-.36,7.045-.788,13.667-1.148,18.726l-6.553-4.467c1.474-5.253,4.5-13.02,5.693-16.026Z" transform="translate(-913.539 -517.748)" fill="#cc1d4f"/>
          </g>
          <g id="Group_470" data-name="Group 470" transform="translate(25.536 160.887)">
            <path id="Path_659" data-name="Path 659" d="M925.307,599.1c.9,3.333,2.47,5.8,1.375,7.712s-.365,3.186.852,5.864,5.026,7.961-5.032,8.154c-10.763.21-16.17-2.548-14.345-8.412s1.6-7.773,1.474-9.684a6.489,6.489,0,0,1,1.629-5.048C912.48,596.537,923.724,593.234,925.307,599.1Z" transform="translate(-907.808 -410.589)" fill="#4c37a8"/>
            <path id="Path_660" data-name="Path 660" d="M949.159,598.128c.907,2.052,5.609,6.987,12.364,10.5s20.9,6.575,12.489,8.616-14.018,1.784-26.764-2.423c-5.352-1.53-4.843-1.784-10.577-1.53s-9.941,1.784-7.264-9.3S946.229,591.5,949.159,598.128Z" transform="translate(-871.122 -413.381)" fill="#4c37a8"/>
            <path id="Path_661" data-name="Path 661" d="M928.654,532.4s0-2.36,2.066-2.636,5.167-.974,28.192-.974,26.715.556,26.715,2.127c0,0,2.362,78.1,1.773,91.147s-2.362,77.732-1.773,83.56a65.183,65.183,0,0,0,1.867,10.273l-8.362-2.221s-12.89,7.4-14.364,9.9-.213-5.538-.985-13.789c-.788-8.42,1.181-76.562,1.477-86.03s-5.609-59.575-5.609-59.575h-4.133s-11.955,39.557-13.728,50.107-3.427,17.54-4.771,23.041c-1.953,7.994-9.93,68.1-10.815,73.657a42.558,42.558,0,0,0,0,11.407l-4.86-4.824s-11.26,1.1-13.031,5.17c0,0,5.286-85.687,8.24-97.346S928.654,532.4,928.654,532.4Z" transform="translate(-906.917 -528.788)" fill="#fcba6b"/>
          </g>
          <path id="Path_662" data-name="Path 662" d="M923.38,483.5a3.292,3.292,0,0,0,3.466,2.6,3.545,3.545,0,0,0,3.186-1.729,5.092,5.092,0,0,1-2.865.852A4.748,4.748,0,0,1,923.38,483.5Z" transform="translate(-854.77 -447.887)" fill="#e49f98"/>
          <path id="Path_663" data-name="Path 663" d="M958.376,507.857s2.371,13.664,2.146,18.544l-8.8,5.026.929-20.466Z" transform="translate(-804.713 -404.866)" fill="#cc1d4f"/>
        </g>
      </g>
      <g id="message" transform="translate(1493.893 428.651)">
        <g id="Group_477" data-name="Group 477" transform="translate(0 16.814)">
          <g id="Group_476" data-name="Group 476" transform="translate(0 0)">
            <path id="Path_668" data-name="Path 668" d="M42.182,31.72a.623.623,0,0,0-.039-.215,1.078,1.078,0,0,0-.425-.6l-6.043-4.2V22.2a1.081,1.081,0,0,0-1.081-1.081H27.642l-5.915-4.112a1.08,1.08,0,0,0-1.231,0L14.542,21.12H7.62A1.081,1.081,0,0,0,6.539,22.2v4.45l-6.072,4.2A1.079,1.079,0,0,0,0,31.722c0,.006,0,.012,0,.019L.032,55.176a1.081,1.081,0,0,0,1.081,1.08h0l40.02-.055a1.081,1.081,0,0,0,1.08-1.083Zm-6.507-2.382,3.454,2.4-3.454,2.4ZM21.108,19.211l2.746,1.909H18.346ZM8.7,23.282H33.513V35.643l-8.33,5.791-3.4-2.635-.015-.01a1.08,1.08,0,0,0-1.31.01L17.04,41.454,8.7,35.691Zm-2.162,6V34.2L2.982,31.738ZM2.165,33.8l13.082,9.041L2.191,52.971ZM4.277,54.089,21.124,41.022,37.91,54.043Zm22.7-11.266,13.05-9.072.026,19.216Z" transform="translate(0 -16.814)" fill="#f8f8f8"/>
          </g>
        </g>
        <g id="Group_479" data-name="Group 479" transform="translate(12.707 27.607)">
          <g id="Group_478" data-name="Group 478">
            <path id="Path_669" data-name="Path 669" d="M169.841,147.713H155.2a1.081,1.081,0,1,0,0,2.162h14.638a1.081,1.081,0,0,0,0-2.162Z" transform="translate(-154.122 -147.713)" fill="#f8f8f8"/>
          </g>
        </g>
        <g id="Group_481" data-name="Group 481" transform="translate(12.707 33.228)">
          <g id="Group_480" data-name="Group 480">
            <path id="Path_670" data-name="Path 670" d="M169.841,215.9H155.2a1.081,1.081,0,0,0,0,2.162h14.638a1.081,1.081,0,0,0,0-2.162Z" transform="translate(-154.122 -215.895)" fill="#f8f8f8"/>
          </g>
        </g>
      </g>
      <g id="gmail" transform="matrix(0.799, -0.602, 0.602, 0.799, 1189.215, 286.894)">
        <path id="Path_671" data-name="Path 671" d="M143.111,69.653v84a13.981,13.981,0,0,1-14,14H14a13.981,13.981,0,0,1-14-14v-84a6.01,6.01,0,0,1,.031-.747A13.95,13.95,0,0,1,13.253,55.684,6.01,6.01,0,0,1,14,55.653H129.111a6.525,6.525,0,0,1,.778.031A13.94,13.94,0,0,1,143.08,68.875,6.459,6.459,0,0,1,143.111,69.653Z" transform="translate(0 -0.001)" fill="#e6f3ff"/>
        <path id="Path_672" data-name="Path 672" d="M314.333,55.683a6.522,6.522,0,0,0-.778-.031H256v112h57.555a13.981,13.981,0,0,0,14-14v-84a6.529,6.529,0,0,0-.031-.778A13.941,13.941,0,0,0,314.333,55.683Z" transform="translate(-184.445)" fill="#cfdbe6"/>
        <path id="Path_673" data-name="Path 673" d="M143.08,68.954a13.94,13.94,0,0,0-13.191-13.191L71.555,114.1c-8.584-8.589-49.862-49.893-58.3-58.333A13.95,13.95,0,0,0,.031,68.985,5.963,5.963,0,0,0,0,69.732v84a13.981,13.981,0,0,0,14,14h4.667V87.621L64.96,133.883a9.314,9.314,0,0,0,13.191,0L124.445,87.59v80.142h4.667a13.981,13.981,0,0,0,14-14v-84A6.64,6.64,0,0,0,143.08,68.954Z" transform="translate(0 -0.08)" fill="#ff4b26"/>
        <path id="Path_674" data-name="Path 674" d="M262.6,133.883,308.889,87.59v80.142h4.667a13.981,13.981,0,0,0,14-14v-84a6.529,6.529,0,0,0-.031-.778,13.94,13.94,0,0,0-13.191-13.191L256,114.1v22.524A9.2,9.2,0,0,0,262.6,133.883Z" transform="translate(-184.445 -0.08)" fill="#d93f21"/>
      </g>
      <g id="phone-contact" transform="translate(1725 285.216) rotate(104)">
        <path id="Path_675" data-name="Path 675" d="M58.555,34.282H55.094A20.5,20.5,0,0,0,34.621,13.805l0-3.456A23.954,23.954,0,0,1,58.555,34.282ZM34.619,16.319l0,3.456a14.513,14.513,0,0,1,14.5,14.505l3.461,0A17.977,17.977,0,0,0,34.619,16.319ZM33.927,0a33.927,33.927,0,1,0,0,67.854,2.094,2.094,0,0,0,0-4.188,29.741,29.741,0,1,1,29.74-29.737c0,6.853-3.648,13.643-8.868,16.522a12.82,12.82,0,0,1-6.146,1.581,9.832,9.832,0,0,0,3.3-3.176,4.462,4.462,0,0,0,.494-.746A33.742,33.742,0,0,0,53.6,42.88c.5-2.21-9.676-6.529-10.561-3.768-.32,1.022-.81,4.254-1.452,5.106-.571.76-1.98.4-2.86-.349-2.32-1.978-4.911-4.884-7.183-7.181l0,0c-.058-.06-.129-.127-.191-.191s-.129-.129-.193-.191v0c-2.3-2.277-5.206-4.861-7.181-7.185-.748-.881-1.109-2.289-.349-2.86.852-.646,4.084-1.128,5.106-1.452,2.754-.881-1.558-11.067-3.772-10.561A33.549,33.549,0,0,0,19.746,15.4a4.911,4.911,0,0,0-.746.5c-5.814,3.685-6.564,12.634-.889,19.3,2.162,2.551,4.418,5.019,6.741,7.428l-.012.008c.064.064.131.125.2.187s.123.129.183.2l.012-.012c2.41,2.322,5.266,5.744,9.906,8.839,9.769,6.525,17.266,4.7,21.682,2.281,7.623-4.2,11.034-13.165,11.034-20.189A33.967,33.967,0,0,0,33.927,0Z" fill="#f8f8f8"/>
      </g>
      <path id="_005-linkedin" data-name="005-linkedin" d="M62.571,0H6.223A6.223,6.223,0,0,0,0,6.223V62.571a6.223,6.223,0,0,0,6.223,6.223H62.571a6.223,6.223,0,0,0,6.223-6.223V6.223A6.223,6.223,0,0,0,62.571,0ZM21.288,59.4a1.811,1.811,0,0,1-1.811,1.811H11.768A1.811,1.811,0,0,1,9.957,59.4V27.086a1.811,1.811,0,0,1,1.811-1.811h7.709a1.811,1.811,0,0,1,1.811,1.811ZM15.622,22.229a7.324,7.324,0,1,1,7.324-7.324A7.324,7.324,0,0,1,15.622,22.229ZM61.575,59.548a1.665,1.665,0,0,1-1.665,1.665H51.637a1.665,1.665,0,0,1-1.665-1.665V44.39c0-2.261.663-9.909-5.909-9.909-5.1,0-6.132,5.234-6.34,7.584V59.548a1.665,1.665,0,0,1-1.665,1.665h-8a1.665,1.665,0,0,1-1.665-1.665V26.94a1.665,1.665,0,0,1,1.665-1.665h8a1.665,1.665,0,0,1,1.665,1.665V29.76c1.89-2.837,4.7-5.027,10.682-5.027,13.246,0,13.17,12.375,13.17,19.175v15.64Z" transform="matrix(0.921, 0.391, -0.391, 0.921, 1473.175, 674.294)" fill="#0077b7"/>
    </g>
  </g>
</svg>
