<svg xmlns="http://www.w3.org/2000/svg" width="34" height="34" viewBox="0 0 34 34">
  <g id="Group_2119" data-name="Group 2119" transform="translate(-578 -388.556)">
    <circle id="Ellipse_50" data-name="Ellipse 50" cx="17" cy="17" r="17" transform="translate(578 388.556)" fill="#7e57c2"/>
    <path id="ic_rotate_left_24px" d="M7.187,8.721,5.741,7.265A8.123,8.123,0,0,0,4.07,11.254H6.141A6.085,6.085,0,0,1,7.187,8.721ZM6.141,13.3H4.07a8.107,8.107,0,0,0,1.661,3.989l1.446-1.456A6.147,6.147,0,0,1,6.141,13.3ZM7.177,18.76a8.125,8.125,0,0,0,4,1.651V18.329a6.064,6.064,0,0,1-2.522-1.056L7.177,18.76Zm6.05-14.612V1L8.561,5.665l4.665,4.563V6.219a6.145,6.145,0,0,1,0,12.12V20.41a8.195,8.195,0,0,0,0-16.263Z" transform="translate(582.93 394.556)" fill="#fff"/>
  </g>
</svg>
