<svg xmlns="http://www.w3.org/2000/svg" width="63.426" height="63.475" viewBox="0 0 63.426 63.475">
  <g id="Group_1222" data-name="Group 1222" transform="translate(-1342.749 -264.931)">
    <path id="Path_1649" data-name="Path 1649" d="M14.013,63.445,26.423,47.829a24.227,24.227,0,0,0,10.2.092L49.191,63.475,50.717,50.73l12.708,1.126L51.985,37.412a24.148,24.148,0,1,0-40.726-.356L0,51.2l12.267-.548ZM55.151,47.394l-7.694-.682-.908,7.581L40.481,46.78a24.241,24.241,0,0,0,9.168-6.333ZM31.735,3.715A20.495,20.495,0,1,1,11.3,24.272,20.519,20.519,0,0,1,31.735,3.715ZM13.55,40.142a24.252,24.252,0,0,0,9.077,6.492l-6.11,7.688-1.029-7.533-7.5.335Zm0,0" transform="translate(1342.749 264.931)" fill="#fff"/>
    <path id="ic_check_24px" d="M10.725,19.434,5.268,13.978,3.41,15.823l7.315,7.315,15.7-15.7L24.582,5.59Z" transform="translate(1359.531 275.513)" fill="#fff" stroke="#fff" stroke-width="1"/>
  </g>
</svg>
