<svg id="Component_32_1" data-name="Component 32 – 1" xmlns="http://www.w3.org/2000/svg" width="32" height="32" viewBox="0 0 32 32">
  <rect id="Rectangle_120" data-name="Rectangle 120" width="32" height="32" rx="5" fill="#efefef"/>
  <g id="Group_1434" data-name="Group 1434" transform="translate(8.253 8.236)">
    <path id="Path_1700" data-name="Path 1700" d="M3.138,105.027c1.446-2.082,2.3-3.423,2.917-4.414-2.384.211-4.669,3.177-4.669,3.177l1.573,1.573A1.635,1.635,0,0,1,3.138,105.027Z" transform="translate(-1.302 -95.546)" fill="#9a9a9a"/>
    <path id="Path_1701" data-name="Path 1701" d="M130.723,234.37l1.572,1.572s2.966-2.285,3.177-4.668c-.991.62-2.332,1.471-4.414,2.917A1.637,1.637,0,0,1,130.723,234.37Z" transform="translate(-124.161 -219.648)" fill="#9a9a9a"/>
    <path id="Path_1702" data-name="Path 1702" d="M5.589,216.089c-.27.109-.535.225-.812.317a12.574,12.574,0,0,1-2.271.52c-.323.045-.65.082-.977.107,0-.04.006-.081.01-.121a14.641,14.641,0,0,1,.38-2.333c.093-.369.212-.728.339-1.087.079-.223.178-.436.278-.65l-.173-.173a4.292,4.292,0,0,0-1,.954,6.263,6.263,0,0,0-.956,1.82,7.574,7.574,0,0,0-.4,2.184,1.707,1.707,0,0,0,.006.313.729.729,0,0,0,.5.58,1.007,1.007,0,0,0,.324.034,7.3,7.3,0,0,0,2-.314A5.536,5.536,0,0,0,5.89,216.2l-.168-.168Z" transform="translate(0 -202.18)" fill="#9a9a9a"/>
    <path id="Path_1703" data-name="Path 1703" d="M52.9.18h0a.553.553,0,0,0-.391-.162H52.5c-1.781.035-6.174.368-8.507,2.7A12.693,12.693,0,0,0,41.83,5.538c-.543.87-1.287,2.062-2.647,4.018a.553.553,0,0,0,.063.707l3.567,3.567a.553.553,0,0,0,.707.063c1.958-1.36,3.149-2.1,4.018-2.647a12.7,12.7,0,0,0,2.819-2.158c2.337-2.338,2.668-6.728,2.7-8.507A.553.553,0,0,0,52.9.18ZM48.767,6.911a1.839,1.839,0,1,1,0-2.6A1.839,1.839,0,0,1,48.767,6.911Z" transform="translate(-36.698)" fill="#9a9a9a"/>
  </g>
</svg>
