<svg xmlns="http://www.w3.org/2000/svg" width="43" height="43" viewBox="0 0 43 43">
  <g id="Group_1298" data-name="Group 1298" transform="translate(-761 -287)">
    <circle id="Ellipse_67" data-name="Ellipse 67" cx="21.5" cy="21.5" r="21.5" transform="translate(761 287)" fill="#7e57c2"/>
    <path id="ic_center_focus_weak_24px" d="M5,15H3v4a2.006,2.006,0,0,0,2,2H9V19H5ZM5,5H9V3H5A2.006,2.006,0,0,0,3,5V9H5ZM19,3H15V5h4V9h2V5A2.006,2.006,0,0,0,19,3Zm0,16H15v2h4a2.006,2.006,0,0,0,2-2V15H19ZM12,8a4,4,0,1,0,4,4A4,4,0,0,0,12,8Zm0,6a2,2,0,1,1,2-2A2.006,2.006,0,0,1,12,14Z" transform="translate(771 297)" fill="#fff"/>
  </g>
</svg>
