<svg id="_002-contest" data-name="002-contest" xmlns="http://www.w3.org/2000/svg" width="24.238" height="28.652" viewBox="0 0 24.238 28.652">
  <path id="Path_1384" data-name="Path 1384" d="M23.119,3.282h-4.36V1.119A1.119,1.119,0,0,0,17.64,0H6.594A1.119,1.119,0,0,0,5.475,1.119V3.282H1.119A1.119,1.119,0,0,0,0,4.4V7.727a7.727,7.727,0,0,0,7.718,7.718h.047A15.908,15.908,0,0,0,11,19.254v2.835a8.239,8.239,0,0,0-3.212,1.154,8.493,8.493,0,0,0-3.271,3.79,1.12,1.12,0,0,0,1,1.62H18.722a1.12,1.12,0,0,0,1-1.62,8.513,8.513,0,0,0-3.271-3.79,8.24,8.24,0,0,0-3.216-1.155V19.254a15.914,15.914,0,0,0,3.233-3.808h.051a7.727,7.727,0,0,0,7.718-7.718V4.4A1.119,1.119,0,0,0,23.119,3.282ZM2.238,7.727V5.52H5.475V7.263A15.888,15.888,0,0,0,6.592,13.09,5.489,5.489,0,0,1,2.238,7.727Zm14.5,18.687H7.5a6.011,6.011,0,0,1,9.237,0Zm-4.621-9.156a13.468,13.468,0,0,1-4.4-9.995V2.238H16.52V7.263A13.47,13.47,0,0,1,12.117,17.258ZM22,7.727a5.489,5.489,0,0,1-4.359,5.364,15.891,15.891,0,0,0,1.118-5.828V5.52H22Zm0,0" transform="translate(0)" fill="#aa9fbd"/>
  <path id="Path_1385" data-name="Path 1385" d="M180.365,76.069l-1.477.9c-.579.347-.309,1.287.224,1.287.216,0,.342-.146.6-.291v5.7c0,.716,1.746.716,1.746,0V76.539C181.462,76.083,180.7,75.859,180.365,76.069Zm0,0" transform="translate(-168.571 -71.737)" fill="#aa9fbd"/>
</svg>
