<svg id="_003-credit-cards-payment" data-name="003-credit-cards-payment" xmlns="http://www.w3.org/2000/svg" width="24.461" height="21.805" viewBox="0 0 24.461 21.805">
  <g id="Group_796" data-name="Group 796" transform="translate(0 0)">
    <path id="Path_1386" data-name="Path 1386" d="M188.422,36.43l-14.981-3.171a1.181,1.181,0,0,0-1.4.909L171.76,36l17.286,3.658.285-1.829A1.181,1.181,0,0,0,188.422,36.43Z" transform="translate(-164.895 -33.234)" fill="#aa9fbd"/>
    <path id="Path_1387" data-name="Path 1387" d="M17.227,168.587a1.193,1.193,0,0,0-1.463-.828l-2.844.79-6.7-1.419-.737,3.484L.871,171.893a1.192,1.192,0,0,0-.828,1.463l2.6,9.356a1.193,1.193,0,0,0,1.463.828L19,179.407a1.193,1.193,0,0,0,.828-1.464l-.446-1.606,1.67.353a1.181,1.181,0,0,0,1.4-.908l1.057-4.994-6.016-1.273Zm1.72,4.755.368-1.741a.486.486,0,0,1,.574-.374l1.741.369a.486.486,0,0,1,.374.574l-.368,1.741a.486.486,0,0,1-.574.374l-1.741-.368A.486.486,0,0,1,18.947,173.343ZM1.13,172.826l4.121-1.143,9.724-2.7,1.046-.291a.218.218,0,0,1,.057-.008.225.225,0,0,1,.214.161l.123.442.385,1.387-15.316,4.25L.977,173.1A.223.223,0,0,1,1.13,172.826Zm17.76,5.376a.224.224,0,0,1-.153.271L3.844,182.606a.217.217,0,0,1-.057.008.225.225,0,0,1-.214-.161L2.059,177l15.316-4.251.934,3.366Z" transform="translate(0 -161.778)" fill="#aa9fbd"/>
    <path id="Path_1388" data-name="Path 1388" d="M91.748,444.956a.486.486,0,0,0-.6-.337l-1.739.483a.486.486,0,0,0-.337.6l.483,1.739a.486.486,0,0,0,.6.337l1.739-.483a.486.486,0,0,0,.337-.6Z" transform="translate(-85.498 -428.159)" fill="#aa9fbd"/>
  </g>
</svg>
