<svg xmlns="http://www.w3.org/2000/svg" width="25.349" height="26.951" viewBox="0 0 25.349 26.951">
  <g id="Group_947" data-name="Group 947" transform="translate(-14.15)">
    <path id="Path_1450" data-name="Path 1450" d="M36.045,10.248V9.212a9.466,9.466,0,0,0-2.469-6.494A8.515,8.515,0,0,0,27.258,0H26.4a8.515,8.515,0,0,0-6.319,2.718,9.466,9.466,0,0,0-2.469,6.494v1.036a3.718,3.718,0,0,0-3.465,3.7v1.619a3.714,3.714,0,0,0,3.709,3.709h2.089a.681.681,0,0,0,.679-.679V10.916a.681.681,0,0,0-.679-.679h-.974V9.212c0-4.479,3.193-7.853,7.423-7.853h.855c4.235,0,7.423,3.375,7.423,7.853v1.025H33.7a.681.681,0,0,0-.679.679v7.678a.681.681,0,0,0,.679.679h.951c-.277,3.544-2.718,4.365-3.85,4.552a2.389,2.389,0,0,0-2.27-1.648h-1.7a2.387,2.387,0,0,0,0,4.773h1.7a2.39,2.39,0,0,0,2.3-1.755,6.427,6.427,0,0,0,2.3-.787,6,6,0,0,0,2.876-5.141,3.713,3.713,0,0,0,3.482-3.7V13.946A3.7,3.7,0,0,0,36.045,10.248ZM19.28,17.915H17.87a2.351,2.351,0,0,1-2.35-2.35V13.946a2.351,2.351,0,0,1,2.35-2.35h1.41Zm9.257,7.678h-1.7a1.025,1.025,0,0,1,0-2.05h1.7a1.025,1.025,0,0,1,0,2.05Zm9.609-10.028a2.351,2.351,0,0,1-2.35,2.35h-1.41V11.6H35.8a2.351,2.351,0,0,1,2.35,2.35Z" fill="#aa9fbd"/>
  </g>
</svg>
