<svg id="_005-settings-gears" data-name="005-settings-gears" xmlns="http://www.w3.org/2000/svg" width="24.223" height="23.977" viewBox="0 0 24.223 23.977">
  <path class="icon" id="Path_1390" data-name="Path 1390" d="M1.591,13.489a5.9,5.9,0,0,0,.527,1.253l-.637.8a.659.659,0,0,0,.049.873l1.1,1.1a.656.656,0,0,0,.873.049l.8-.631a5.8,5.8,0,0,0,1.3.551l.12,1.026a.657.657,0,0,0,.652.582H7.924a.657.657,0,0,0,.652-.582l.114-.99a5.863,5.863,0,0,0,1.4-.564l.772.611a.659.659,0,0,0,.873-.049l1.1-1.1a.656.656,0,0,0,.049-.873l-.6-.761a5.727,5.727,0,0,0,.574-1.372l.925-.107a.657.657,0,0,0,.582-.652V11.1a.657.657,0,0,0-.582-.652l-.912-.107a5.764,5.764,0,0,0-.551-1.356l.561-.709a.659.659,0,0,0-.049-.873L11.731,6.312a.656.656,0,0,0-.873-.049l-.689.546a5.783,5.783,0,0,0-1.427-.6l-.1-.891a.657.657,0,0,0-.652-.582H6.435a.657.657,0,0,0-.652.582l-.1.891a5.759,5.759,0,0,0-1.463.618L3.5,6.262a.659.659,0,0,0-.873.049l-1.1,1.1a.656.656,0,0,0-.049.873l.6.756a5.653,5.653,0,0,0-.54,1.369l-.956.109A.657.657,0,0,0,0,11.168V12.72a.657.657,0,0,0,.582.652Zm5.621-4.2a2.565,2.565,0,1,1-2.565,2.565A2.568,2.568,0,0,1,7.212,9.292Z" transform="translate(-0.001 -4.737)" fill="#aa9fbd"/>
  <path class="icon" id="Path_1391" data-name="Path 1391" d="M488.049,289.538l-.819-.691a.647.647,0,0,0-.863.023l-.452.424a4.673,4.673,0,0,0-1.206-.39l-.127-.624a.653.653,0,0,0-.691-.52l-1.068.091a.651.651,0,0,0-.6.626l-.021.634a4.69,4.69,0,0,0-1.151.605l-.54-.359a.649.649,0,0,0-.855.122l-.691.824a.647.647,0,0,0,.023.863l.473.5a4.844,4.844,0,0,0-.348,1.154l-.676.138a.653.653,0,0,0-.52.691l.091,1.068a.651.651,0,0,0,.626.6l.73.023a4.768,4.768,0,0,0,.517.987l-.408.616a.649.649,0,0,0,.122.855l.819.691a.648.648,0,0,0,.863-.023l.535-.5a4.692,4.692,0,0,0,1.1.359l.148.733a.653.653,0,0,0,.691.52l1.068-.091a.651.651,0,0,0,.6-.626l.023-.717a4.8,4.8,0,0,0,1.1-.556l.59.39a.649.649,0,0,0,.855-.122l.691-.819a.647.647,0,0,0-.023-.863l-.476-.5a4.679,4.679,0,0,0,.374-1.159l.65-.133a.654.654,0,0,0,.52-.691l-.091-1.068a.651.651,0,0,0-.626-.6l-.652-.021a4.72,4.72,0,0,0-.543-1.071l.356-.535A.646.646,0,0,0,488.049,289.538Zm-4.025,6.174a2.1,2.1,0,1,1,1.915-2.269A2.1,2.1,0,0,1,484.024,295.713Z" transform="translate(-465.502 -280.405)" fill="#aa9fbd"/>
  <path class="icon" id="Path_1392" data-name="Path 1392" d="M182.887,562.52a.649.649,0,0,0-.582.639l-.008.657a.648.648,0,0,0,.566.652l.483.062a3.748,3.748,0,0,0,.343.839l-.312.385a.648.648,0,0,0,.039.863l.46.47a.649.649,0,0,0,.863.06l.387-.3a3.794,3.794,0,0,0,.863.377l.052.5a.649.649,0,0,0,.639.582l.657.008a.648.648,0,0,0,.652-.566l.06-.473a3.9,3.9,0,0,0,.935-.364l.364.294a.648.648,0,0,0,.863-.039l.47-.46a.649.649,0,0,0,.06-.863l-.278-.361a3.769,3.769,0,0,0,.4-.91l.431-.044a.649.649,0,0,0,.582-.639l.008-.657a.648.648,0,0,0-.566-.652l-.421-.055a3.916,3.916,0,0,0-.356-.909l.262-.322a.648.648,0,0,0-.039-.863l-.46-.47a.649.649,0,0,0-.863-.06l-.314.242a3.82,3.82,0,0,0-.946-.411l-.042-.408a.649.649,0,0,0-.639-.582l-.657-.008a.648.648,0,0,0-.652.567l-.052.405a3.926,3.926,0,0,0-.98.4l-.325-.265a.648.648,0,0,0-.863.039l-.473.463a.649.649,0,0,0-.06.863l.278.359a3.8,3.8,0,0,0-.372.909Zm4.243-.743a1.71,1.71,0,1,1-1.731,1.689A1.711,1.711,0,0,1,187.13,561.777Z" transform="translate(-177.56 -544.338)" fill="#aa9fbd"/>
</svg>
