<svg xmlns="http://www.w3.org/2000/svg" width="49.013" height="42.785" viewBox="0 0 49.013 42.785">
  <path id="_001-skype" data-name="001-skype" d="M47.037,50.6A6.3,6.3,0,0,1,45.9,46.884c0-.008,0-.015,0-.023A21.4,21.4,0,0,0,17.152,26.769a6.308,6.308,0,0,1-3.872.184,10.447,10.447,0,0,0-11.3,16.171,6.3,6.3,0,0,1,1.136,3.714v.023A21.4,21.4,0,0,0,31.861,66.952a6.308,6.308,0,0,1,3.872-.184A10.447,10.447,0,0,0,47.037,50.6ZM25.29,43.025C29.6,44.051,36.122,45.6,36.122,52.781a7.823,7.823,0,0,1-4.905,7.6,17.825,17.825,0,0,1-7.013,1.1c-6.765,0-11.037-5.26-11.216-5.484a3.218,3.218,0,0,1,5.032-4.012A9.544,9.544,0,0,0,24.2,55.046c4.358.138,5.354-1.158,5.483-2.265.157-1.352-1.045-2.344-5.886-3.5-4.1-.976-10.3-2.45-10.3-9.063,0-2.059.838-8.778,11.615-8.778,6.805,0,10.822,5.358,10.99,5.586a3.218,3.218,0,0,1-5.17,3.832,9.666,9.666,0,0,0-5.82-2.982c-2.606-.248-5.18.692-5.18,2.081C19.932,41.432,20.671,41.927,25.29,43.025Z" transform="translate(0 -25.468)" fill="#00aaf2"/>
</svg>
