<svg xmlns="http://www.w3.org/2000/svg" width="143.327" height="143.333" viewBox="0 0 143.327 143.333">
  <g id="Group_1297" data-name="Group 1297" transform="translate(8690 -8175.001)">
    <g id="user" transform="translate(-8690 8175.001)">
      <path id="Path_1185" data-name="Path 1185" d="M34.252,98.736,12.869,110.4a19.216,19.216,0,0,0-3.432,2.442,71.621,71.621,0,0,0,92.022.238,18.971,18.971,0,0,0-3.77-2.526l-22.9-11.448a8.732,8.732,0,0,1-4.827-7.81V82.312a34.589,34.589,0,0,0,2.166-2.786,52.688,52.688,0,0,0,7.118-14.344,7.192,7.192,0,0,0,5.1-6.842v-9.59a7.159,7.159,0,0,0-2.4-5.314V29.574S84.8,8,55.585,8,29.217,29.574,29.217,29.574V43.437a7.149,7.149,0,0,0-2.4,5.314v9.59a7.19,7.19,0,0,0,3.316,6.033,47.589,47.589,0,0,0,8.67,17.938v8.762A8.741,8.741,0,0,1,34.252,98.736Z" transform="translate(16.084 13.637)" fill="#e3e3e3"/>
      <g id="Group_517" data-name="Group 517">
        <path id="Path_1186" data-name="Path 1186" d="M72.891.011a71.621,71.621,0,0,0-47.34,126.446,19.042,19.042,0,0,1,3.4-2.418l21.384-11.664a8.735,8.735,0,0,0,4.551-7.667V95.946a47.543,47.543,0,0,1-8.67-17.938A7.192,7.192,0,0,1,42.9,71.975v-9.59a7.159,7.159,0,0,1,2.4-5.314V43.208S42.448,21.635,71.664,21.635,98.031,43.208,98.031,43.208V57.071a7.149,7.149,0,0,1,2.4,5.314v9.59a7.192,7.192,0,0,1-5.1,6.842,52.688,52.688,0,0,1-7.118,14.344,34.581,34.581,0,0,1-2.166,2.786v8.984a8.729,8.729,0,0,0,4.827,7.81l22.9,11.448a19.067,19.067,0,0,1,3.759,2.52A71.65,71.65,0,0,0,72.891.011Z" transform="translate(0 0)" fill="#f0f0f0"/>
      </g>
    </g>
  </g>
</svg>
