<svg xmlns="http://www.w3.org/2000/svg" width="67.142" height="67.135" viewBox="0 0 67.142 67.135">
  <g id="Group_900" data-name="Group 900" transform="translate(0 -0.027)">
    <g id="Group_903" data-name="Group 903" transform="translate(23.559 32.314)">
      <g id="Group_902" data-name="Group 902">
        <path id="Path_1435" data-name="Path 1435" d="M181.321,246.237l-1.665,1.1a17.748,17.748,0,0,0,1.816,2.331l1.459-1.359A15.751,15.751,0,0,1,181.321,246.237Z" transform="translate(-179.656 -246.237)" fill="#fff"/>
      </g>
    </g>
    <g id="Group_905" data-name="Group 905" transform="translate(19 21.257)">
      <g id="Group_904" data-name="Group 904">
        <path id="Path_1436" data-name="Path 1436" d="M146.834,161.922l-1.944.443a38.854,38.854,0,0,0,3.794,10.459l1.734-.985A36.9,36.9,0,0,1,146.834,161.922Z" transform="translate(-144.89 -161.922)" fill="#fff"/>
      </g>
    </g>
    <g id="Group_2119" data-name="Group 2119">
      <g id="Group_901" data-name="Group 901" transform="translate(0 0.027)">
        <g id="Group_900-2" data-name="Group 900" transform="translate(0 0)">
          <path id="Path_1434" data-name="Path 1434" d="M67.139,12.836C67.072,7.137,64.156,4,58.928,4a18.442,18.442,0,0,0-5.248.864c.127-2.329.129-3.767.129-3.839v-1H13.334v1c0,.034,0,1.495.132,3.84A18.443,18.443,0,0,0,8.214,4C2.985,4,.069,7.137,0,12.836A27.373,27.373,0,0,0,3.8,27.668,24,24,0,0,0,11.865,35.7a18.856,18.856,0,0,0,9.7,2.655,16.713,16.713,0,0,0,1.705-.083l.1-.012a15.364,15.364,0,0,0,3.771,3.013,3.926,3.926,0,0,1,1.917,2.62,3.285,3.285,0,0,0,.091,6.3V54.38h-5.4v4.367H18.439v8.415H48.7V58.747H43.379V54.38h-5.4V50.2a3.284,3.284,0,0,0,.091-6.3,3.926,3.926,0,0,1,1.917-2.62,15.429,15.429,0,0,0,3.774-3.013,16.511,16.511,0,0,0,1.805.094h0a18.856,18.856,0,0,0,9.7-2.655,24,24,0,0,0,8.063-8.035A27.369,27.369,0,0,0,67.139,12.836ZM51.8,2.021c-.009.365-.023.823-.045,1.36H15.393c-.023-.536-.038-1-.047-1.36Zm1.356,9.155a15.708,15.708,0,0,1,4.67-.9,3.588,3.588,0,0,1,2.815.955c.635.728.84,1.952.608,3.637-.964,7.019-4.008,12.5-8.57,15.428a10.823,10.823,0,0,1-4.735,1.592C50.976,25.507,52.444,17.506,53.154,11.176Zm-38.14,6.945a57.253,57.253,0,0,0,4.025,13.427c.052.113.106.225.159.336a10.826,10.826,0,0,1-4.733-1.592c-4.562-2.93-7.606-8.409-8.57-15.428-.231-1.685-.027-2.909.608-3.637a3.589,3.589,0,0,1,2.815-.955,15.717,15.717,0,0,1,4.674.9C14.232,13.336,14.562,15.7,15.014,18.122ZM21.57,36.364a16.861,16.861,0,0,1-8.677-2.369c-3.328-2-11.051-8.071-10.9-21.135.054-4.62,2.088-6.866,6.218-6.866A17.274,17.274,0,0,1,13.6,7.01c.05.669.105,1.34.167,2.008a16.376,16.376,0,0,0-4.45-.739A5.448,5.448,0,0,0,5,9.917C3.969,11.1,3.605,12.855,3.919,15.136A28.083,28.083,0,0,0,7.254,25.4a18.882,18.882,0,0,0,6.134,6.568,13.261,13.261,0,0,0,6.883,1.977l.019.032q.153.268.309.528l.1.162c.1.163.2.325.3.483.038.06.077.118.115.177q.1.159.208.314t.2.3q.1.144.2.286c.032.044.063.09.094.134ZM46.709,60.742v4.426H20.433V60.742H46.709Zm-8.725-4.367h3.4v2.373H25.758V56.375H37.984Zm-6.831-1.994V50.318H35.99v4.063Zm7.238-7.348A1.292,1.292,0,0,1,37.1,48.324H30.042a1.291,1.291,0,0,1,0-2.581H37.1A1.292,1.292,0,0,1,38.391,47.033Zm4.988-11.4-.033.043c-.1.127-.2.251-.3.373l-.073.09q-.164.2-.33.389l-.016.018a13.721,13.721,0,0,1-3.608,2.987,5.929,5.929,0,0,0-2.95,4.215h-5a5.929,5.929,0,0,0-2.951-4.215,13.509,13.509,0,0,1-3.365-2.708l-.244-.278a22.3,22.3,0,0,1-2.777-4.071l-.261-.481C17.185,23.71,15.888,11.735,15.5,5.375H51.652c-.017.277-.035.562-.055.859l0,.042q-.033.482-.071.967l0,.028c-.08,1.023-.174,2.05-.282,3.064l-.065.613c-.725,6.495-2.255,14.769-5.482,21l-.285.525A23.85,23.85,0,0,1,43.379,35.634Zm10.869-1.639a16.859,16.859,0,0,1-8.676,2.369h0l-.248,0,0-.006q.194-.268.382-.544l.046-.068q.159-.234.314-.475l.08-.124c.114-.18.228-.36.338-.544l.052-.087q.136-.228.269-.46l.063-.107a13.261,13.261,0,0,0,6.883-1.977A18.887,18.887,0,0,0,59.888,25.4a28.088,28.088,0,0,0,3.335-10.266c.313-2.281-.05-4.037-1.081-5.219a5.447,5.447,0,0,0-4.318-1.638,16.371,16.371,0,0,0-4.45.739c.063-.681.117-1.335.163-1.956l0-.052a17.273,17.273,0,0,1,5.387-1.017c4.13,0,6.163,2.246,6.218,6.866C65.3,25.924,57.576,31.992,54.248,33.995Z" transform="translate(0 -0.027)" fill="#fff"/>
        </g>
      </g>
      <g id="Group_907" data-name="Group 907" transform="translate(52.818 40.082)">
        <g id="Group_906" data-name="Group 906">
          <path id="Path_1437" data-name="Path 1437" d="M408.136,309.15v-1.994h-1.683v-1.683h-1.994v1.684h-1.683v1.994h1.683v1.683h1.994v-1.683Z" transform="translate(-402.774 -305.473)" fill="#fff"/>
        </g>
      </g>
      <g id="Group_908" data-name="Group 908" transform="translate(9.968 50.709)">
        <path id="Path_1438" data-name="Path 1438" d="M80.838,389.911l0-1.994H79.423v-1.413l-1.994,0v1.413H76.016l0,1.994h1.413v1.413l1.994,0v-1.413Z" transform="translate(-76.016 -386.506)" fill="#fff"/>
      </g>
      <g id="Group_911" data-name="Group 911" transform="translate(6.405 37.812)">
        <g id="Group_910" data-name="Group 910">
          <rect id="Rectangle_644" data-name="Rectangle 644" width="1.881" height="1.994" fill="#fff"/>
        </g>
      </g>
      <g id="Group_913" data-name="Group 913" transform="translate(18.495 43.712)">
        <g id="Group_912" data-name="Group 912">
          <rect id="Rectangle_645" data-name="Rectangle 645" width="1.881" height="1.994" fill="#fff"/>
        </g>
      </g>
      <g id="Group_915" data-name="Group 915" transform="translate(48.816 49.712)">
        <g id="Group_914" data-name="Group 914">
          <rect id="Rectangle_646" data-name="Rectangle 646" width="1.881" height="1.994" fill="#fff"/>
        </g>
      </g>
    </g>
  </g>
</svg>
